<svg viewBox="0 0 822 366" fill="none" xmlns="http://www.w3.org/2000/svg">
<path d="M1.98585 337.437C-10.0882 345.934 -16.9212 354.105 -22.6515 355.847C-28.3818 357.59 -37.3788 370.273 -48.1824 363.507C-58.9861 356.741 -51.4743 346.987 -52.2761 341.308C-54.303 326.951 -48.178 316.716 -46.6755 303.525C-39.9637 244.6 -56.6681 188.197 -62.6154 130.357C-69.4719 63.6756 -48.2945 -10.138 -34.5503 -74.7592C-30.6628 -93.0369 -27.8262 -116.548 -18.007 -133.18C-6.92101 -151.959 8.75297 -143.101 29.2214 -140.77C100.251 -132.679 171.25 -123.437 242.461 -117.129C308.51 -111.279 374.026 -112.105 440.167 -110.82C538.333 -108.914 638.037 -92.018 732.556 -66.168C759.307 -58.852 829.457 -47.7309 821.239 -6.46041C816.704 16.3118 801.855 37.7505 782.52 50.2454C746.798 73.329 716.539 80.5018 675.049 75.776C622.666 69.8092 585.361 43.4009 536.627 68.7468C509.516 82.8469 482.86 111.873 442.05 125.91C363.73 152.851 289.234 102.955 230.733 107.879C135.892 115.863 91.3451 196.372 54.069 278.687C42.0465 305.236 25.0013 321.241 1.98585 337.437Z" fill="#4343FF"/>
</svg>
