<svg width="30" height="30" viewBox="0 0 30 30" fill="none" xmlns="http://www.w3.org/2000/svg">
<g clip-path="url(#clip0_23_1415)">
<path d="M15 30C23.2843 30 30 23.2843 30 15C30 6.71573 23.2843 0 15 0C6.71573 0 0 6.71573 0 15C0 23.2843 6.71573 30 15 30Z" fill="#6F3FAA"/>
<path d="M23.6642 10.8843V10.8621C23.4631 10.0473 22.9381 9.20529 22.2494 8.4962C21.4449 7.66438 20.4205 7.01154 19.442 6.80017H19.4216C16.5038 6.24109 13.5064 6.24109 10.5886 6.80017H10.5682C8.75114 7.19392 6.77898 9.09279 6.3392 10.8621V10.8843C5.79888 13.3372 5.79888 15.8784 6.3392 18.3314V18.3519C6.65284 19.6132 7.74375 20.9394 9.0017 21.7405C9.41253 22.0082 9.85972 22.2155 10.3295 22.3559V24.3297C10.3302 24.4875 10.3778 24.6414 10.4663 24.772C10.5548 24.9026 10.6802 25.0039 10.8265 25.0629C10.9727 25.122 11.1333 25.1362 11.2876 25.1036C11.442 25.0711 11.5832 24.9934 11.6932 24.8803L13.6943 22.8007C14.1273 22.8246 14.5636 22.8382 14.9966 22.8382C16.4787 22.8378 17.9574 22.6974 19.4131 22.4189H19.4335C21.2455 22.0235 23.2193 20.1246 23.6557 18.3553V18.3348C24.1993 15.8814 24.2022 13.339 23.6642 10.8843ZM22.0807 17.9667C21.7875 19.1206 20.2909 20.5576 19.0994 20.8218C17.5519 21.1182 15.9768 21.2468 14.4017 21.2053C14.3864 21.2043 14.371 21.2069 14.3568 21.2128C14.3427 21.2187 14.33 21.2278 14.3199 21.2394L12.8591 22.7394L11.3045 24.3331C11.2797 24.3594 11.2475 24.3776 11.2122 24.3854C11.1768 24.3932 11.14 24.3902 11.1063 24.3768C11.0727 24.3634 11.0439 24.3402 11.0237 24.3102C11.0034 24.2802 10.9926 24.2449 10.9926 24.2087V20.936C10.9927 20.9097 10.9835 20.8842 10.9666 20.8639C10.9498 20.8437 10.9264 20.83 10.9006 20.8252C10.6521 20.7662 10.4125 20.6745 10.1881 20.5524C9.17557 20.0121 8.15454 18.9042 7.91932 17.9667C7.43209 15.7494 7.43209 13.4527 7.91932 11.2354C8.21079 10.0865 9.71591 8.65301 10.8989 8.38711C13.6078 7.86878 16.3905 7.86878 19.0994 8.38711C19.7557 8.5337 20.5057 9.03313 21.092 9.64676C21.5744 10.1462 21.9443 10.7223 22.0807 11.2405C22.5672 13.4562 22.5672 15.751 22.0807 17.9667Z" fill="white"/>
<path d="M19.142 18.1365C18.9206 18.6419 18.5398 19.061 18.0579 19.3297C17.9067 19.3939 17.7498 19.4435 17.5892 19.478C17.4068 19.4235 17.2329 19.386 17.0778 19.3195C15.7857 18.8167 14.5828 18.1093 13.5153 17.2246C13.1982 16.9542 12.9003 16.662 12.6238 16.3502C11.9411 15.5639 11.3677 14.6889 10.9193 13.749C10.7011 13.3041 10.517 12.8439 10.3295 12.3854C10.1591 11.9678 10.4113 11.5331 10.6704 11.2212C10.924 10.9319 11.236 10.6995 11.5858 10.5394C11.7089 10.4775 11.8497 10.4607 11.9839 10.4918C12.1181 10.523 12.2372 10.6001 12.3204 10.7098C12.7559 11.1991 13.1398 11.7321 13.4659 12.3002C13.5686 12.4654 13.6038 12.6638 13.5641 12.8542C13.5244 13.0446 13.413 13.2125 13.2528 13.3229C13.1676 13.3826 13.0824 13.4507 13.0091 13.5172C12.9368 13.5707 12.8745 13.6365 12.825 13.7115C12.7822 13.7818 12.7563 13.8609 12.7492 13.9428C12.7421 14.0247 12.754 14.1072 12.7841 14.1837C13.113 15.0888 13.6125 15.8439 14.3591 16.374C14.6117 16.5527 14.8839 16.7019 15.1704 16.8189C15.3575 16.9207 15.5677 16.9723 15.7807 16.9689C16.1522 16.9246 16.275 16.5138 16.5341 16.3024C16.653 16.2051 16.8002 16.1487 16.9537 16.1416C17.1073 16.1345 17.259 16.1772 17.3863 16.2632C17.6625 16.4337 17.9284 16.6263 18.1943 16.8138C18.4573 16.9933 18.7105 17.1868 18.9528 17.3933C19.0661 17.4757 19.1471 17.595 19.1817 17.7308C19.2162 17.8665 19.2022 18.01 19.142 18.1365Z" fill="white"/>
<path d="M15.4892 9.96831H15.271C15.3409 9.9649 15.4142 9.96831 15.4892 9.96831Z" fill="white"/>
<path d="M19.2614 15.0771C19.091 15.0771 19.0074 14.9322 18.9955 14.7736C18.9734 14.4617 18.9563 14.1481 18.9137 13.8378C18.84 13.3144 18.6577 12.8122 18.3785 12.3634C18.0914 11.8959 17.7095 11.4938 17.2573 11.1831C16.8052 10.8725 16.2928 10.6602 15.7535 10.56C15.508 10.5157 15.2574 10.5055 15.0103 10.4799C14.8535 10.4628 14.6472 10.4526 14.6131 10.2583C14.608 10.2206 14.611 10.1822 14.622 10.1457C14.6329 10.1092 14.6515 10.0755 14.6765 10.0468C14.7015 10.018 14.7324 9.99499 14.767 9.97915C14.8016 9.9633 14.8392 9.95503 14.8773 9.95489C14.9182 9.95254 14.9592 9.95254 15.0001 9.95489C15.7451 9.9612 16.4771 10.1512 17.1312 10.5079C17.7854 10.8647 18.3414 11.3773 18.7501 12.0003C19.0727 12.5025 19.2917 13.0641 19.3944 13.6521C19.4591 14.0202 19.483 14.3986 19.512 14.7736C19.5178 14.8104 19.5157 14.848 19.5059 14.8839C19.4961 14.9198 19.4788 14.9532 19.4551 14.9818C19.4314 15.0105 19.4019 15.0339 19.3685 15.0503C19.3351 15.0667 19.2986 15.0758 19.2614 15.0771Z" fill="white"/>
<path d="M18.3392 14.2817C18.3383 14.3323 18.3314 14.3827 18.3188 14.4317C18.3039 14.481 18.2742 14.5245 18.2337 14.5563C18.1932 14.5881 18.1439 14.6066 18.0925 14.6094C18.0411 14.6122 17.9901 14.5991 17.9464 14.5719C17.9027 14.5447 17.8685 14.5046 17.8483 14.4573C17.8296 14.3884 17.8209 14.3172 17.8228 14.2459C17.8267 13.8646 17.7513 13.4867 17.6012 13.1362C17.5671 13.0612 17.5296 12.9845 17.487 12.9112C17.243 12.4907 16.8808 12.1511 16.4455 11.9345C16.1828 11.8105 15.9039 11.7244 15.6171 11.6788C15.4909 11.6584 15.3648 11.6465 15.2387 11.6294C15.2058 11.6278 15.1737 11.6194 15.1442 11.6048C15.1148 11.5903 15.0886 11.5698 15.0673 11.5447C15.0461 11.5196 15.0302 11.4905 15.0207 11.459C15.0112 11.4275 15.0082 11.3945 15.012 11.3618C15.012 11.3284 15.0191 11.2954 15.0327 11.2649C15.0464 11.2344 15.0664 11.2072 15.0913 11.185C15.1163 11.1628 15.1457 11.1461 15.1775 11.136C15.2094 11.1259 15.243 11.1227 15.2762 11.1266C15.7767 11.1459 16.267 11.2738 16.7131 11.5016C17.2579 11.7757 17.7023 12.2147 17.983 12.7561C18.1411 13.0722 18.247 13.4119 18.2966 13.7618C18.3058 13.8074 18.3126 13.8535 18.3171 13.8999C18.3256 14.0021 18.329 14.1044 18.3375 14.2306C18.3375 14.2425 18.3392 14.2578 18.3392 14.2817Z" fill="white"/>
<path d="M17.1716 14.0468C17.1619 14.09 17.1396 14.1293 17.1074 14.1597C17.0752 14.1901 17.0346 14.2101 16.9909 14.2172H16.9534C16.8975 14.2208 16.842 14.2062 16.7953 14.1754C16.7485 14.1446 16.7131 14.0995 16.6943 14.0468C16.6837 14.0188 16.6768 13.9896 16.6738 13.9598C16.6649 13.8451 16.6478 13.7312 16.6227 13.6189C16.572 13.3916 16.4429 13.1894 16.2579 13.0479C16.1685 12.9837 16.0688 12.9353 15.963 12.9047C15.8284 12.8655 15.6869 12.8757 15.554 12.8434C15.4882 12.8317 15.4298 12.7945 15.3915 12.7399C15.3531 12.6852 15.338 12.6176 15.3494 12.5519C15.3621 12.4889 15.3973 12.4327 15.4484 12.3938C15.4996 12.3549 15.5632 12.3359 15.6272 12.3405C16.4079 12.3968 16.9909 12.7718 17.1409 13.6087C17.1563 13.6864 17.1671 13.7649 17.1733 13.8439C17.1828 13.9112 17.1822 13.9796 17.1716 14.0468Z" fill="white"/>
</g>
<defs>
<clipPath id="clip0_23_1415">
<rect width="30" height="30" fill="white"/>
</clipPath>
</defs>
</svg>
