<svg  viewBox="0 0 400 567" fill="none" xmlns="http://www.w3.org/2000/svg">
<circle cx="200" cy="282" r="200" fill="#75BF7A"/>
<path fill-rule="evenodd" clip-rule="evenodd" d="M338.022 130.578H338.675C339.397 130.578 339.982 131.163 339.982 131.883V194.541C339.982 195.262 339.397 195.846 338.675 195.846H338.022V130.578Z" fill="#121515"/>
<path fill-rule="evenodd" clip-rule="evenodd" d="M61 169.739C61 169.018 61.585 168.434 62.3067 168.434H62.9601V209.552H62.3067C61.585 209.552 61 208.968 61 208.247V169.739Z" fill="#121515"/>
<path fill-rule="evenodd" clip-rule="evenodd" d="M61 118.177C61 117.456 61.585 116.872 62.3067 116.872H62.9601V157.991H62.3067C61.585 157.991 61 157.406 61 156.685V118.177Z" fill="#121515"/>
<path fill-rule="evenodd" clip-rule="evenodd" d="M61 78.3637C61 77.6428 61.585 77.0583 62.3067 77.0583H62.9601V98.5968H62.3067C61.585 98.5968 61 98.0124 61 97.2914V78.3637Z" fill="#121515"/>
<g filter="url(#filter0_dd_0_1)">
<path fill-rule="evenodd" clip-rule="evenodd" d="M62.96 43.1189C62.96 20.4096 81.3885 2 104.121 2H296.86C319.593 2 338.022 20.4096 338.022 43.1189V520.881C338.022 543.59 319.593 562 296.86 562H104.121C81.3885 562 62.96 543.59 62.96 520.881V43.1189Z" fill="#3A4245"/>
</g>
<path fill-rule="evenodd" clip-rule="evenodd" d="M66.2271 43.1189C66.2271 22.2119 83.193 5.26343 104.122 5.26343H296.861C317.789 5.26343 334.755 22.2119 334.755 43.1189V520.881C334.755 541.788 317.789 558.737 296.861 558.737H104.122C83.193 558.737 66.2271 541.788 66.2271 520.881V43.1189Z" fill="#121515"/>
<g clip-path="url(#clip0_0_1)">
<rect x="77.9697" y="17.6121" width="244.364" height="529.455" rx="25.1152" fill="white"/>
<rect x="154.673" y="538.242" width="90.9576" height="3.39394" rx="1.69697" fill="black"/>
<path d="M296.539 17.6121H103.764C89.5181 17.6121 77.9697 29.1604 77.9697 43.406V521.273C77.9697 535.518 89.5181 547.067 103.764 547.067H296.539C310.785 547.067 322.333 535.518 322.333 521.273V43.406C322.333 29.1604 310.785 17.6121 296.539 17.6121Z" fill="white"/>
<path d="M103.764 17.6121H296.539C303.38 17.6121 309.941 20.3296 314.778 25.1669C319.616 30.0042 322.333 36.565 322.333 43.406V47.4787H77.9697V43.406C77.9697 36.565 80.6873 30.0042 85.5246 25.1669C90.3619 20.3296 96.9227 17.6121 103.764 17.6121V17.6121Z" fill="white"/>
<path d="M77.9697 523.988H322.333C322.333 530.109 319.902 535.979 315.574 540.307C311.246 544.635 305.375 547.067 299.255 547.067H101.049C94.9276 547.067 89.0575 544.635 84.7293 540.307C80.4012 535.979 77.9697 530.109 77.9697 523.988V523.988Z" fill="white"/>
<path d="M243.255 538.242H157.049C156.111 538.242 155.352 539.002 155.352 539.939C155.352 540.877 156.111 541.636 157.049 541.636H243.255C244.192 541.636 244.952 540.877 244.952 539.939C244.952 539.002 244.192 538.242 243.255 538.242Z" fill="#EDEDED"/>
<g clip-path="url(#clip1_0_1)">
<path d="M125.485 17.6121H274.139V17.6121C272.71 18.0212 271.708 19.3058 271.659 20.7918L271.639 21.3873V21.3873C271.639 30.5488 264.212 37.9757 255.051 37.9757H144.574C135.412 37.9757 127.985 30.5488 127.985 21.3873V21.3873L127.966 20.7918C127.917 19.3058 126.914 18.0212 125.485 17.6121V17.6121Z" fill="#121515"/>
<path opacity="0.35" d="M297.671 29.7171H308.984C309.796 29.7171 310.455 30.3755 310.455 31.1878V35.2605C310.455 36.0728 309.796 36.7312 308.984 36.7312H297.671C296.859 36.7312 296.2 36.0728 296.2 35.2605V31.1878C296.2 30.3755 296.859 29.7171 297.671 29.7171Z" stroke="black" stroke-width="0.678788"/>
<path opacity="0.4" d="M311.473 31.8667V34.5819C312.019 34.3519 312.375 33.8169 312.375 33.2243C312.375 32.6316 312.019 32.0967 311.473 31.8667" fill="black"/>
<path d="M297.218 31.6404C297.218 31.1406 297.623 30.7354 298.123 30.7354H308.531C309.031 30.7354 309.436 31.1406 309.436 31.6404V34.8081C309.436 35.3079 309.031 35.7131 308.531 35.7131H298.123C297.623 35.7131 297.218 35.3079 297.218 34.8081V31.6404Z" fill="black"/>
<path fill-rule="evenodd" clip-rule="evenodd" d="M287.261 30.9218C288.765 30.9219 290.212 31.4998 291.302 32.5362C291.384 32.6162 291.515 32.6152 291.596 32.5339L292.38 31.742C292.421 31.7008 292.444 31.645 292.444 31.5869C292.444 31.5288 292.42 31.4732 292.379 31.4325C289.517 28.6905 285.004 28.6905 282.142 31.4325C282.101 31.4732 282.078 31.5287 282.077 31.5868C282.077 31.6449 282.1 31.7008 282.14 31.742L282.925 32.5339C283.006 32.6153 283.137 32.6163 283.22 32.5362C284.31 31.4997 285.757 30.9218 287.261 30.9218ZM287.261 33.4981C288.087 33.4981 288.884 33.8052 289.497 34.3599C289.58 34.4387 289.71 34.437 289.791 34.3561L290.575 33.5642C290.616 33.5226 290.639 33.4663 290.638 33.4077C290.638 33.3492 290.614 33.2933 290.571 33.2526C288.706 31.5174 285.817 31.5174 283.952 33.2526C283.91 33.2933 283.886 33.3492 283.885 33.4078C283.884 33.4664 283.907 33.5227 283.949 33.5642L284.732 34.3561C284.813 34.437 284.944 34.4387 285.026 34.3599C285.639 33.8056 286.435 33.4985 287.261 33.4981ZM288.831 35.2316C288.832 35.2903 288.809 35.3469 288.767 35.3881L287.411 36.7563C287.371 36.7965 287.317 36.8191 287.261 36.8191C287.204 36.8191 287.15 36.7965 287.11 36.7563L285.754 35.3881C285.712 35.3469 285.689 35.2903 285.691 35.2316C285.692 35.1728 285.717 35.1172 285.761 35.0779C286.627 34.3455 287.895 34.3455 288.761 35.0779C288.804 35.1173 288.83 35.1729 288.831 35.2316Z" fill="black"/>
<path fill-rule="evenodd" clip-rule="evenodd" d="M277.986 29.6039H277.307C276.932 29.6039 276.629 29.9078 276.629 30.2827V36.1655C276.629 36.5404 276.932 36.8443 277.307 36.8443H277.986C278.361 36.8443 278.665 36.5404 278.665 36.1655V30.2827C278.665 29.9078 278.361 29.6039 277.986 29.6039ZM274.14 31.1877H274.818C275.193 31.1877 275.497 31.4916 275.497 31.8665V36.1655C275.497 36.5404 275.193 36.8443 274.818 36.8443H274.14C273.765 36.8443 273.461 36.5404 273.461 36.1655V31.8665C273.461 31.4916 273.765 31.1877 274.14 31.1877ZM271.651 32.7717H270.972C270.597 32.7717 270.293 33.0756 270.293 33.4504V36.1656C270.293 36.5405 270.597 36.8444 270.972 36.8444H271.651C272.026 36.8444 272.33 36.5405 272.33 36.1656V33.4504C272.33 33.0756 272.026 32.7717 271.651 32.7717ZM268.483 34.1292H267.804C267.429 34.1292 267.125 34.4331 267.125 34.808V36.1656C267.125 36.5405 267.429 36.8444 267.804 36.8444H268.483C268.858 36.8444 269.162 36.5405 269.162 36.1656V34.808C269.162 34.4331 268.858 34.1292 268.483 34.1292Z" fill="black"/>
<path d="M103.302 36.7921C105.127 36.7921 106.211 35.3653 106.211 32.9491C106.211 32.0393 106.037 31.2737 105.704 30.682C105.221 29.7623 104.391 29.2651 103.342 29.2651C101.781 29.2651 100.677 30.3141 100.677 31.7857C100.677 33.1678 101.672 34.1721 103.039 34.1721C103.879 34.1721 104.56 33.7793 104.898 33.0982H104.913C104.913 33.0982 104.933 33.0982 104.938 33.0982C104.948 33.0982 104.983 33.0982 104.983 33.0982C104.983 34.7389 104.361 35.7183 103.312 35.7183C102.696 35.7183 102.218 35.3802 102.054 34.8383H100.777C100.99 36.0166 101.99 36.7921 103.302 36.7921ZM103.347 33.1529C102.522 33.1529 101.935 32.5663 101.935 31.746C101.935 30.9455 102.552 30.334 103.352 30.334C104.152 30.334 104.769 30.9555 104.769 31.7658C104.769 32.5663 104.167 33.1529 103.347 33.1529Z" fill="black"/>
<path d="M108.309 36.7225C108.781 36.7225 109.104 36.3845 109.104 35.937C109.104 35.4846 108.781 35.1515 108.309 35.1515C107.842 35.1515 107.513 35.4846 107.513 35.937C107.513 36.3845 107.842 36.7225 108.309 36.7225ZM108.309 32.9938C108.781 32.9938 109.104 32.6607 109.104 32.2133C109.104 31.7609 108.781 31.4278 108.309 31.4278C107.842 31.4278 107.513 31.7609 107.513 32.2133C107.513 32.6607 107.842 32.9938 108.309 32.9938Z" fill="black"/>
<path d="M113.758 36.6181H114.986V35.2808H115.955V34.197H114.986V29.4441H113.176C111.908 31.3532 110.899 32.9491 110.253 34.1373V35.2808H113.758V36.6181ZM111.441 34.1522C112.276 32.6806 113.022 31.5024 113.708 30.4881H113.778V34.2268H111.441V34.1522Z" fill="black"/>
<path d="M118.69 36.6181H119.973V29.4441H118.695L116.821 30.7566V31.9896L118.605 30.7367H118.69V36.6181Z" fill="black"/>
</g>
<path fill-rule="evenodd" clip-rule="evenodd" d="M230.219 28.1072C233.105 28.1072 235.445 25.7695 235.445 22.8858C235.445 20.002 233.105 17.6643 230.219 17.6643C227.332 17.6643 224.992 20.002 224.992 22.8858C224.992 25.7695 227.332 28.1072 230.219 28.1072Z" fill="#262C2D"/>
<path fill-rule="evenodd" clip-rule="evenodd" d="M230.218 26.1491C232.023 26.1491 233.485 24.688 233.485 22.8857C233.485 21.0834 232.023 19.6223 230.218 19.6223C228.414 19.6223 226.952 21.0834 226.952 22.8857C226.952 24.688 228.414 26.1491 230.218 26.1491Z" fill="#121515"/>
<path opacity="0.4" fill-rule="evenodd" clip-rule="evenodd" d="M230.218 22.2331C230.579 22.2331 230.872 21.9409 230.872 21.5804C230.872 21.2199 230.579 20.9277 230.218 20.9277C229.857 20.9277 229.565 21.2199 229.565 21.5804C229.565 21.9409 229.857 22.2331 230.218 22.2331Z" fill="#636F73"/>
<path fill-rule="evenodd" clip-rule="evenodd" d="M183.831 22.8858C183.831 21.8044 184.707 20.9277 185.789 20.9277H215.194C216.275 20.9277 217.152 21.8044 217.152 22.8858V22.8858C217.152 23.9672 216.275 24.8438 215.194 24.8438H185.789C184.707 24.8438 183.831 23.9672 183.831 22.8858V22.8858Z" fill="#262C2D"/>
</g>
<g filter="url(#filter1_d_0_1)">
<path d="M78 492.844H322.202V521.888C322.202 535.818 310.909 547.111 296.979 547.111H103.223C89.2929 547.111 78 535.818 78 521.888V492.844Z" fill="white"/>
</g>
<path d="M109.636 528.836V526.898H110.413V531.626H109.636V529.58H107.609V531.626H106.832V526.898H107.609V528.836H109.636ZM114.168 531.201C113.826 531.543 113.405 531.714 112.905 531.714C112.405 531.714 111.984 531.543 111.642 531.201C111.295 530.854 111.122 530.433 111.122 529.938C111.122 529.442 111.295 529.021 111.642 528.674C111.984 528.332 112.405 528.161 112.905 528.161C113.405 528.161 113.826 528.332 114.168 528.674C114.515 529.021 114.689 529.442 114.689 529.938C114.689 530.433 114.515 530.854 114.168 531.201ZM111.851 529.938C111.851 530.244 111.953 530.498 112.155 530.701C112.358 530.904 112.608 531.005 112.905 531.005C113.202 531.005 113.452 530.904 113.655 530.701C113.858 530.498 113.959 530.244 113.959 529.938C113.959 529.631 113.858 529.377 113.655 529.174C113.452 528.972 113.202 528.87 112.905 528.87C112.608 528.87 112.358 528.972 112.155 529.174C111.953 529.377 111.851 529.631 111.851 529.938ZM119.037 528.161C119.42 528.161 119.728 528.285 119.962 528.532C120.197 528.78 120.314 529.113 120.314 529.532V531.626H119.584V529.58C119.584 529.35 119.526 529.17 119.408 529.039C119.291 528.908 119.131 528.843 118.929 528.843C118.699 528.843 118.519 528.92 118.388 529.073C118.258 529.221 118.192 529.442 118.192 529.735V531.626H117.463V529.58C117.463 529.345 117.407 529.165 117.294 529.039C117.186 528.908 117.03 528.843 116.828 528.843C116.603 528.843 116.42 528.92 116.281 529.073C116.145 529.226 116.078 529.447 116.078 529.735V531.626H115.348V528.249H116.078V528.654C116.294 528.325 116.616 528.161 117.044 528.161C117.476 528.161 117.796 528.339 118.003 528.695C118.224 528.339 118.568 528.161 119.037 528.161ZM124.357 530.248H121.669C121.723 530.501 121.844 530.696 122.034 530.836C122.227 530.976 122.466 531.045 122.75 531.045C123.132 531.045 123.423 530.906 123.621 530.627L124.222 530.978C123.894 531.469 123.4 531.714 122.743 531.714C122.198 531.714 121.754 531.548 121.412 531.214C121.074 530.877 120.905 530.451 120.905 529.938C120.905 529.438 121.072 529.017 121.405 528.674C121.734 528.332 122.162 528.161 122.689 528.161C123.18 528.161 123.585 528.334 123.905 528.681C124.225 529.028 124.385 529.449 124.385 529.944C124.385 530.034 124.376 530.136 124.357 530.248ZM121.662 529.654H123.648C123.599 529.388 123.486 529.183 123.31 529.039C123.139 528.895 122.93 528.823 122.682 528.823C122.412 528.823 122.187 528.897 122.007 529.046C121.826 529.194 121.712 529.397 121.662 529.654Z" fill="#262626"/>
<path d="M164.515 526.898H165.346V531.626H164.569V528.255L163.13 530.633H163.036L161.597 528.249V531.626H160.82V526.898H161.658L163.083 529.262L164.515 526.898ZM167.654 530.701L168.519 528.249H169.295L167.998 531.735C167.674 532.608 167.125 533.023 166.35 532.978V532.295C166.575 532.309 166.758 532.261 166.897 532.153C167.037 532.045 167.154 531.872 167.248 531.633L167.282 531.566L165.85 528.249H166.647L167.654 530.701ZM173.325 528.249V528.951H172.488V530.573C172.488 530.712 172.519 530.814 172.582 530.877C172.645 530.935 172.738 530.969 172.859 530.978C172.985 530.982 173.141 530.98 173.325 530.971V531.626C172.767 531.694 172.366 531.647 172.123 531.485C171.88 531.318 171.758 531.014 171.758 530.573V528.951H171.137V528.249H171.758V527.519L172.488 527.303V528.249H173.325ZM174.75 528.249V528.816C174.934 528.397 175.281 528.188 175.79 528.188V528.978C175.515 528.96 175.272 529.028 175.06 529.181C174.853 529.33 174.75 529.577 174.75 529.924V531.626H174.02V528.249H174.75ZM177.018 527.607C176.928 527.697 176.82 527.742 176.694 527.742C176.568 527.742 176.457 527.697 176.363 527.607C176.273 527.512 176.228 527.402 176.228 527.276C176.228 527.15 176.273 527.042 176.363 526.952C176.453 526.857 176.563 526.81 176.694 526.81C176.825 526.81 176.935 526.857 177.025 526.952C177.115 527.042 177.16 527.15 177.16 527.276C177.16 527.402 177.113 527.512 177.018 527.607ZM177.059 531.626H176.329V528.249H177.059V531.626ZM179.818 528.161C180.277 528.161 180.673 528.334 181.007 528.681C181.335 529.023 181.5 529.442 181.5 529.938C181.5 530.437 181.335 530.859 181.007 531.201C180.678 531.543 180.282 531.714 179.818 531.714C179.309 531.714 178.915 531.525 178.635 531.147V532.978H177.906V528.249H178.635V528.735C178.91 528.352 179.304 528.161 179.818 528.161ZM178.939 530.714C179.142 530.917 179.397 531.018 179.703 531.018C180.009 531.018 180.264 530.917 180.466 530.714C180.669 530.507 180.77 530.248 180.77 529.938C180.77 529.627 180.669 529.37 180.466 529.167C180.264 528.96 180.009 528.857 179.703 528.857C179.397 528.857 179.142 528.96 178.939 529.167C178.737 529.37 178.635 529.627 178.635 529.938C178.635 530.244 178.737 530.503 178.939 530.714ZM182.75 529.181C182.75 529.285 182.804 529.37 182.913 529.438C183.021 529.501 183.178 529.561 183.385 529.62C183.543 529.656 183.68 529.694 183.798 529.735C183.915 529.775 184.038 529.836 184.169 529.917C184.3 529.994 184.399 530.097 184.466 530.228C184.538 530.354 184.572 530.503 184.568 530.674C184.568 530.998 184.442 531.253 184.189 531.437C183.937 531.622 183.624 531.714 183.25 531.714C182.917 531.714 182.631 531.644 182.392 531.505C182.154 531.365 181.98 531.172 181.872 530.924L182.5 530.559C182.613 530.883 182.863 531.045 183.25 531.045C183.633 531.045 183.825 530.919 183.825 530.667C183.825 530.483 183.611 530.338 183.183 530.235C183.021 530.194 182.883 530.154 182.771 530.113C182.663 530.073 182.541 530.014 182.406 529.938C182.275 529.861 182.174 529.76 182.102 529.634C182.034 529.507 182.003 529.361 182.007 529.194C182.007 528.884 182.124 528.634 182.359 528.445C182.597 528.255 182.892 528.161 183.244 528.161C183.523 528.161 183.771 528.224 183.987 528.35C184.207 528.472 184.376 528.643 184.493 528.863L183.879 529.208C183.766 528.951 183.554 528.823 183.244 528.823C183.099 528.823 182.98 528.854 182.886 528.917C182.795 528.981 182.75 529.068 182.75 529.181Z" fill="#262626"/>
<path d="M214.324 530.106V526.898H215.101V531.626H214.493L212.263 528.418V531.626H211.486V526.898H212.094L214.324 530.106ZM218.855 531.201C218.513 531.543 218.092 531.714 217.592 531.714C217.092 531.714 216.671 531.543 216.329 531.201C215.982 530.854 215.809 530.433 215.809 529.938C215.809 529.442 215.982 529.021 216.329 528.674C216.671 528.332 217.092 528.161 217.592 528.161C218.092 528.161 218.513 528.332 218.855 528.674C219.202 529.021 219.376 529.442 219.376 529.938C219.376 530.433 219.202 530.854 218.855 531.201ZM216.538 529.938C216.538 530.244 216.64 530.498 216.842 530.701C217.045 530.904 217.295 531.005 217.592 531.005C217.889 531.005 218.139 530.904 218.342 530.701C218.545 530.498 218.646 530.244 218.646 529.938C218.646 529.631 218.545 529.377 218.342 529.174C218.139 528.972 217.889 528.87 217.592 528.87C217.295 528.87 217.045 528.972 216.842 529.174C216.64 529.377 216.538 529.631 216.538 529.938ZM221.854 528.249V528.951H221.016V530.573C221.016 530.712 221.048 530.814 221.111 530.877C221.174 530.935 221.266 530.969 221.388 530.978C221.514 530.982 221.67 530.98 221.854 530.971V531.626C221.296 531.694 220.895 531.647 220.652 531.485C220.408 531.318 220.287 531.014 220.287 530.573V528.951H219.665V528.249H220.287V527.519L221.016 527.303V528.249H221.854ZM223.205 527.607C223.115 527.697 223.007 527.742 222.881 527.742C222.755 527.742 222.644 527.697 222.55 527.607C222.46 527.512 222.415 527.402 222.415 527.276C222.415 527.15 222.46 527.042 222.55 526.952C222.64 526.857 222.75 526.81 222.881 526.81C223.011 526.81 223.122 526.857 223.212 526.952C223.302 527.042 223.347 527.15 223.347 527.276C223.347 527.402 223.3 527.512 223.205 527.607ZM223.246 531.626H222.516V528.249H223.246V531.626ZM225.065 528.249H226.917V531.626H226.187V528.951H225.065V531.626H224.336V528.951H223.822V528.249H224.336V528.181C224.336 527.267 224.845 526.81 225.863 526.81C226.11 526.81 226.36 526.839 226.613 526.898V527.566C226.36 527.53 226.11 527.512 225.863 527.512C225.588 527.512 225.385 527.564 225.255 527.668C225.129 527.767 225.065 527.938 225.065 528.181V528.249ZM229.355 531.714C228.846 531.714 228.421 531.543 228.078 531.201C227.741 530.854 227.572 530.433 227.572 529.938C227.572 529.433 227.741 529.012 228.078 528.674C228.421 528.332 228.846 528.161 229.355 528.161C229.684 528.161 229.983 528.24 230.254 528.397C230.524 528.555 230.726 528.767 230.862 529.032L230.233 529.397C230.157 529.235 230.04 529.109 229.882 529.019C229.729 528.924 229.551 528.877 229.348 528.877C229.051 528.877 228.801 528.978 228.598 529.181C228.4 529.388 228.301 529.64 228.301 529.938C228.301 530.235 228.4 530.487 228.598 530.694C228.801 530.897 229.051 530.998 229.348 530.998C229.547 530.998 229.724 530.953 229.882 530.863C230.044 530.769 230.166 530.64 230.247 530.478L230.875 530.836C230.731 531.106 230.522 531.32 230.247 531.478C229.977 531.635 229.679 531.714 229.355 531.714ZM234.025 528.728V528.249H234.755V531.626H234.025V531.14C233.75 531.523 233.356 531.714 232.843 531.714C232.379 531.714 231.982 531.543 231.654 531.201C231.325 530.859 231.161 530.437 231.161 529.938C231.161 529.438 231.325 529.017 231.654 528.674C231.982 528.332 232.379 528.161 232.843 528.161C233.356 528.161 233.75 528.35 234.025 528.728ZM232.194 530.714C232.397 530.917 232.651 531.018 232.958 531.018C233.264 531.018 233.518 530.917 233.721 530.714C233.924 530.507 234.025 530.248 234.025 529.938C234.025 529.627 233.924 529.37 233.721 529.167C233.518 528.96 233.264 528.857 232.958 528.857C232.651 528.857 232.397 528.96 232.194 529.167C231.991 529.37 231.89 529.627 231.89 529.938C231.89 530.244 231.991 530.503 232.194 530.714ZM237.49 528.249V528.951H236.652V530.573C236.652 530.712 236.684 530.814 236.747 530.877C236.81 530.935 236.902 530.969 237.024 530.978C237.15 530.982 237.305 530.98 237.49 530.971V531.626C236.931 531.694 236.53 531.647 236.287 531.485C236.044 531.318 235.922 531.014 235.922 530.573V528.951H235.301V528.249H235.922V527.519L236.652 527.303V528.249H237.49ZM238.841 527.607C238.75 527.697 238.642 527.742 238.516 527.742C238.39 527.742 238.28 527.697 238.185 527.607C238.095 527.512 238.05 527.402 238.05 527.276C238.05 527.15 238.095 527.042 238.185 526.952C238.275 526.857 238.386 526.81 238.516 526.81C238.647 526.81 238.757 526.857 238.847 526.952C238.937 527.042 238.982 527.15 238.982 527.276C238.982 527.402 238.935 527.512 238.841 527.607ZM238.881 531.626H238.151V528.249H238.881V531.626ZM242.586 531.201C242.244 531.543 241.822 531.714 241.323 531.714C240.823 531.714 240.402 531.543 240.059 531.201C239.712 530.854 239.539 530.433 239.539 529.938C239.539 529.442 239.712 529.021 240.059 528.674C240.402 528.332 240.823 528.161 241.323 528.161C241.822 528.161 242.244 528.332 242.586 528.674C242.933 529.021 243.106 529.442 243.106 529.938C243.106 530.433 242.933 530.854 242.586 531.201ZM240.269 529.938C240.269 530.244 240.37 530.498 240.573 530.701C240.775 530.904 241.025 531.005 241.323 531.005C241.62 531.005 241.87 530.904 242.072 530.701C242.275 530.498 242.376 530.244 242.376 529.938C242.376 529.631 242.275 529.377 242.072 529.174C241.87 528.972 241.62 528.87 241.323 528.87C241.025 528.87 240.775 528.972 240.573 529.174C240.37 529.377 240.269 529.631 240.269 529.938ZM245.543 528.161C245.934 528.161 246.247 528.287 246.482 528.539C246.72 528.787 246.84 529.125 246.84 529.552V531.626H246.11V529.627C246.11 529.375 246.042 529.181 245.907 529.046C245.772 528.911 245.588 528.843 245.353 528.843C245.088 528.843 244.878 528.926 244.725 529.093C244.572 529.255 244.495 529.496 244.495 529.816V531.626H243.766V528.249H244.495V528.681C244.721 528.334 245.07 528.161 245.543 528.161ZM248.28 529.181C248.28 529.285 248.335 529.37 248.443 529.438C248.551 529.501 248.708 529.561 248.916 529.62C249.073 529.656 249.211 529.694 249.328 529.735C249.445 529.775 249.569 529.836 249.699 529.917C249.83 529.994 249.929 530.097 249.996 530.228C250.068 530.354 250.102 530.503 250.098 530.674C250.098 530.998 249.972 531.253 249.719 531.437C249.467 531.622 249.154 531.714 248.78 531.714C248.447 531.714 248.161 531.644 247.922 531.505C247.684 531.365 247.51 531.172 247.402 530.924L248.031 530.559C248.143 530.883 248.393 531.045 248.78 531.045C249.163 531.045 249.355 530.919 249.355 530.667C249.355 530.483 249.141 530.338 248.713 530.235C248.551 530.194 248.413 530.154 248.301 530.113C248.193 530.073 248.071 530.014 247.936 529.938C247.805 529.861 247.704 529.76 247.632 529.634C247.564 529.507 247.533 529.361 247.537 529.194C247.537 528.884 247.654 528.634 247.889 528.445C248.127 528.255 248.422 528.161 248.774 528.161C249.053 528.161 249.301 528.224 249.517 528.35C249.737 528.472 249.906 528.643 250.023 528.863L249.409 529.208C249.296 528.951 249.084 528.823 248.774 528.823C248.63 528.823 248.51 528.854 248.416 528.917C248.326 528.981 248.28 529.068 248.28 529.181Z" fill="#262626"/>
<path d="M274.586 526.898H276.329C276.775 526.898 277.146 527.046 277.443 527.343C277.745 527.641 277.896 528.01 277.896 528.451C277.896 528.888 277.745 529.257 277.443 529.559C277.146 529.856 276.775 530.005 276.329 530.005H275.363V531.626H274.586V526.898ZM275.363 529.276H276.329C276.558 529.276 276.748 529.199 276.896 529.046C277.045 528.888 277.119 528.69 277.119 528.451C277.119 528.213 277.045 528.017 276.896 527.864C276.748 527.706 276.558 527.627 276.329 527.627H275.363V529.276ZM279.187 528.249V528.816C279.372 528.397 279.718 528.188 280.227 528.188V528.978C279.953 528.96 279.709 529.028 279.498 529.181C279.291 529.33 279.187 529.577 279.187 529.924V531.626H278.457V528.249H279.187ZM283.466 531.201C283.123 531.543 282.702 531.714 282.202 531.714C281.702 531.714 281.281 531.543 280.939 531.201C280.592 530.854 280.419 530.433 280.419 529.938C280.419 529.442 280.592 529.021 280.939 528.674C281.281 528.332 281.702 528.161 282.202 528.161C282.702 528.161 283.123 528.332 283.466 528.674C283.812 529.021 283.986 529.442 283.986 529.938C283.986 530.433 283.812 530.854 283.466 531.201ZM281.148 529.938C281.148 530.244 281.25 530.498 281.452 530.701C281.655 530.904 281.905 531.005 282.202 531.005C282.5 531.005 282.75 530.904 282.952 530.701C283.155 530.498 283.256 530.244 283.256 529.938C283.256 529.631 283.155 529.377 282.952 529.174C282.75 528.972 282.5 528.87 282.202 528.87C281.905 528.87 281.655 528.972 281.452 529.174C281.25 529.377 281.148 529.631 281.148 529.938ZM285.5 528.249H287.351V531.626H286.621V528.951H285.5V531.626H284.77V528.951H284.257V528.249H284.77V528.181C284.77 527.267 285.279 526.81 286.297 526.81C286.545 526.81 286.794 526.839 287.047 526.898V527.566C286.794 527.53 286.545 527.512 286.297 527.512C286.022 527.512 285.819 527.564 285.689 527.668C285.563 527.767 285.5 527.938 285.5 528.181V528.249ZM288.925 531.626H288.195V526.695H288.925V531.626ZM293.035 530.248H290.346C290.4 530.501 290.522 530.696 290.711 530.836C290.904 530.976 291.143 531.045 291.427 531.045C291.81 531.045 292.1 530.906 292.298 530.627L292.9 530.978C292.571 531.469 292.078 531.714 291.42 531.714C290.875 531.714 290.431 531.548 290.089 531.214C289.751 530.877 289.583 530.451 289.583 529.938C289.583 529.438 289.749 529.017 290.082 528.674C290.411 528.332 290.839 528.161 291.366 528.161C291.857 528.161 292.262 528.334 292.582 528.681C292.902 529.028 293.062 529.449 293.062 529.944C293.062 530.034 293.053 530.136 293.035 530.248ZM290.339 529.654H292.325C292.276 529.388 292.163 529.183 291.988 529.039C291.816 528.895 291.607 528.823 291.359 528.823C291.089 528.823 290.864 528.897 290.684 529.046C290.504 529.194 290.389 529.397 290.339 529.654Z" fill="#262626"/>
<circle cx="115.142" cy="511.533" r="7.93785" stroke="black" stroke-width="0.337781"/>
<path d="M110.751 512.209L115.143 507.817L119.534 512.209" stroke="#000001" stroke-width="0.675562" stroke-linecap="round" stroke-linejoin="round"/>
<path d="M112.103 510.857V515.249H118.183V510.857" stroke="#000001" stroke-width="0.675562" stroke-linecap="round" stroke-linejoin="round"/>
<path d="M115.143 515.249V512.546" stroke="#000001" stroke-width="0.675562" stroke-linecap="round" stroke-linejoin="round"/>
<circle cx="283.357" cy="511.533" r="7.93785" stroke="black" stroke-width="0.337781"/>
<path d="M283.817 510.857C285.029 510.857 286.012 509.874 286.012 508.662C286.012 507.449 285.029 506.466 283.817 506.466C282.604 506.466 281.621 507.449 281.621 508.662C281.621 509.874 282.604 510.857 283.817 510.857Z" stroke="#000001" stroke-width="0.675562" stroke-linecap="round" stroke-linejoin="round"/>
<path d="M287.992 515.249C287.708 514.364 287.151 513.593 286.4 513.045C285.65 512.498 284.745 512.203 283.817 512.203C282.888 512.203 281.983 512.498 281.233 513.045C280.482 513.593 279.925 514.364 279.642 515.249H287.992Z" stroke="#000001" stroke-width="0.675562" stroke-linecap="round" stroke-linejoin="round"/>
<circle cx="230.663" cy="511.533" r="7.93785" stroke="black" stroke-width="0.337781"/>
<path d="M230.664 507.817C231.432 507.817 232.169 508.123 232.713 508.666C233.256 509.21 233.562 509.947 233.562 510.716C233.562 513.938 234.737 514.573 235.055 514.573H226.272C226.597 514.573 227.765 513.931 227.765 510.716C227.765 509.947 228.071 509.21 228.614 508.666C229.158 508.123 229.895 507.817 230.664 507.817V507.817Z" stroke="#000001" stroke-width="0.675562" stroke-linecap="round" stroke-linejoin="round"/>
<path d="M229.65 515.134C229.709 515.358 229.84 515.557 230.023 515.698C230.207 515.84 230.432 515.917 230.664 515.917C230.896 515.917 231.121 515.84 231.304 515.698C231.488 515.557 231.619 515.358 231.677 515.134" stroke="#000001" stroke-width="0.675562" stroke-linecap="round" stroke-linejoin="round"/>
<circle cx="172.565" cy="511.533" r="7.93785" stroke="black" stroke-width="0.337781"/>
<path d="M174.592 509.844L172.565 513.222" stroke="#000001" stroke-width="0.675562" stroke-linecap="round" stroke-linejoin="round"/>
<path d="M176.619 513.222C176.897 512.555 177.006 511.829 176.936 511.109C176.866 510.39 176.62 509.699 176.219 509.097C175.818 508.496 175.275 508.003 174.637 507.661C174 507.32 173.288 507.142 172.565 507.142C171.843 507.142 171.131 507.32 170.493 507.661C169.856 508.003 169.313 508.496 168.912 509.097C168.511 509.699 168.265 510.39 168.195 511.109C168.125 511.829 168.234 512.555 168.512 513.222H176.619Z" stroke="#000001" stroke-width="0.675562" stroke-linecap="round" stroke-linejoin="round"/>
<defs>
<filter id="filter0_dd_0_1" x="60.2448" y="0.642424" width="280.492" height="565.43" filterUnits="userSpaceOnUse" color-interpolation-filters="sRGB">
<feFlood flood-opacity="0" result="BackgroundImageFix"/>
<feColorMatrix in="SourceAlpha" type="matrix" values="0 0 0 0 0 0 0 0 0 0 0 0 0 0 0 0 0 0 127 0" result="hardAlpha"/>
<feOffset/>
<feGaussianBlur stdDeviation="0.678788"/>
<feColorMatrix type="matrix" values="0 0 0 0 0 0 0 0 0 0.0823529 0 0 0 0 0.25098 0 0 0 0.14 0"/>
<feBlend mode="normal" in2="BackgroundImageFix" result="effect1_dropShadow_0_1"/>
<feColorMatrix in="SourceAlpha" type="matrix" values="0 0 0 0 0 0 0 0 0 0 0 0 0 0 0 0 0 0 127 0" result="hardAlpha"/>
<feOffset dy="1.35758"/>
<feGaussianBlur stdDeviation="1.35758"/>
<feColorMatrix type="matrix" values="0 0 0 0 0 0 0 0 0 0.0823529 0 0 0 0 0.25098 0 0 0 0.05 0"/>
<feBlend mode="normal" in2="effect1_dropShadow_0_1" result="effect2_dropShadow_0_1"/>
<feBlend mode="normal" in="SourceGraphic" in2="effect2_dropShadow_0_1" result="shape"/>
</filter>
<filter id="filter1_d_0_1" x="71.2166" y="488.774" width="257.769" height="67.8339" filterUnits="userSpaceOnUse" color-interpolation-filters="sRGB">
<feFlood flood-opacity="0" result="BackgroundImageFix"/>
<feColorMatrix in="SourceAlpha" type="matrix" values="0 0 0 0 0 0 0 0 0 0 0 0 0 0 0 0 0 0 127 0" result="hardAlpha"/>
<feOffset dy="2.71336"/>
<feGaussianBlur stdDeviation="3.3917"/>
<feComposite in2="hardAlpha" operator="out"/>
<feColorMatrix type="matrix" values="0 0 0 0 0 0 0 0 0 0 0 0 0 0 0 0 0 0 0.2 0"/>
<feBlend mode="normal" in2="BackgroundImageFix" result="effect1_dropShadow_0_1"/>
<feBlend mode="normal" in="SourceGraphic" in2="effect1_dropShadow_0_1" result="shape"/>
</filter>
<clipPath id="clip0_0_1">
<rect x="77.9697" y="17.6121" width="244.364" height="529.455" rx="25.1152" fill="white"/>
</clipPath>
<clipPath id="clip1_0_1">
<rect width="244.364" height="29.8667" fill="white" transform="translate(77.9697 17.6121)"/>
</clipPath>
</defs>
</svg>
