<svg width="156" height="103" viewBox="0 0 156 103" fill="none" xmlns="http://www.w3.org/2000/svg">
<g clip-path="url(#clip0_17_375)">
<path d="M144.774 49.0312C144.738 48.5543 144.67 48.0854 144.575 47.6325L144.563 47.6124C144.471 47.1756 144.356 46.7467 144.201 46.2939L144.085 45.9612C144.029 45.8049 143.974 45.6366 143.91 45.4683L143.878 45.3841C143.791 45.1436 143.695 44.8831 143.592 44.6106C143.592 44.6026 143.56 44.5184 143.496 44.286C143.476 44.2138 143.44 44.0575 143.385 43.7409C143.369 43.6407 143.341 43.4644 143.325 43.1959C143.305 42.8752 143.297 42.5346 143.305 42.1779C143.309 41.8372 143.337 41.4284 143.389 40.9595C143.44 40.4826 143.52 39.9135 143.635 39.2642L143.711 38.627C143.739 38.2262 143.767 37.8455 143.791 37.4687C143.807 37.2243 143.822 36.9878 143.838 36.7554L143.866 36.3466C143.914 35.6572 143.898 34.9358 143.818 34.2104C143.755 33.6173 143.647 33.0121 143.496 32.4149C143.337 31.6294 143.098 30.8559 142.784 30.1145C142.442 29.3049 142.004 28.5234 141.506 27.81C141.037 27.1327 140.492 26.4834 139.891 25.8742C139.306 25.2851 138.665 24.736 137.992 24.2511C137.304 23.7501 136.564 23.3012 135.8 22.9165C135.047 22.5397 134.248 22.2071 133.432 21.9386C132.246 21.5418 131.004 21.2733 129.631 21.117C128.772 21.0208 127.88 20.9727 126.905 20.9727C126.662 20.9727 126.416 20.9727 126.161 20.9807C125.962 20.9847 125.755 20.9847 125.544 20.9887C124.896 20.9887 124.084 20.9967 123.085 21.0809C121.405 21.2212 119.65 21.5538 117.72 22.0989C115.34 22.7682 113.267 23.8623 111.671 25.2931C111.639 25.233 111.608 25.1689 111.576 25.1087C111.23 24.4955 110.867 23.9585 110.469 23.4655L108.746 22.0067C107.68 21.4055 106.625 20.9406 105.646 20.628C104.436 20.2393 103.247 20.0429 102.1 20.0429C101.117 20.0429 100.162 20.1832 99.2629 20.4557C98.3118 20.7443 97.4124 21.1851 96.6006 21.7662L96.5528 21.8023C96.4096 21.9065 96.2703 22.0107 96.135 22.1229C95.6972 21.8785 95.2197 21.662 94.6864 21.4737C94.2168 21.3053 93.6915 21.1531 93.1264 21.0168C92.5096 20.8685 91.8689 20.7603 91.2321 20.6882C90.6034 20.62 89.9666 20.5839 89.3299 20.5839C88.5778 20.5839 87.8216 20.6441 87.0854 20.7683C86.3333 20.8925 85.5891 21.0849 84.8767 21.3414C83.7585 21.7422 82.7516 22.3394 81.892 23.1169C81.518 23.4535 81.1876 23.8262 80.8812 24.223C80.5628 23.9505 80.2325 23.69 79.8943 23.4455C79.2058 22.9445 78.4656 22.4957 77.7015 22.1109C76.9494 21.7342 76.1495 21.4015 75.3376 21.133C74.1517 20.7362 72.9101 20.4677 71.5371 20.3114C70.6775 20.2152 69.7861 20.1671 68.8111 20.1671C68.5684 20.1671 68.3216 20.1671 68.0669 20.1752C67.868 20.1792 67.661 20.1792 67.4541 20.1832C66.8054 20.1832 65.9936 20.1912 64.9947 20.2753C63.3153 20.4156 61.5603 20.7483 59.6262 21.2933C57.4932 21.8905 55.6148 22.8363 54.0986 24.0507C53.9274 23.5096 53.7484 22.9726 53.5653 22.4636C53.3822 21.9466 53.1753 21.4015 52.9127 20.7563L52.8888 20.7002C52.5943 19.9948 52.2998 19.3776 51.9774 18.8045C51.5914 18.1111 51.1815 17.506 50.7239 16.9529L49.0286 15.5301C47.8586 14.8729 46.7005 14.3559 45.5902 13.9992C44.2769 13.5743 42.9756 13.3579 41.726 13.3579C40.6595 13.3579 39.6327 13.5102 38.6697 13.8068C37.643 14.1234 36.6878 14.6003 35.8322 15.2175C35.4741 15.478 35.1239 15.7586 34.7896 16.0592L34.5389 15.8668C33.9738 15.5141 33.353 15.2175 32.6406 14.969C32.1511 14.7967 31.6139 14.6364 30.9891 14.4801L30.9413 14.4681C30.2608 14.3038 29.5524 14.1795 28.8361 14.1034C28.1397 14.0272 27.4194 13.9871 26.7031 13.9871C25.8634 13.9871 25.0356 14.0553 24.2317 14.1875C23.4159 14.3238 22.6041 14.5362 21.8121 14.8168L21.7684 14.8328C20.5904 15.2616 19.5398 15.8908 18.6484 16.7004C17.7171 17.546 16.973 18.568 16.4397 19.7463C15.8945 20.9527 15.4448 22.1831 15.0986 23.4094C14.7444 24.6599 14.4857 25.9504 14.3305 27.2489C14.2071 28.2629 14.0917 29.2688 13.9803 30.2788C13.8689 31.2887 13.7654 32.2907 13.6659 33.2966C13.5863 34.1182 13.4749 34.9799 13.3356 35.8616C13.2083 36.6792 13.0491 37.5208 12.862 38.3585C12.7387 38.9075 12.5596 39.4566 12.3208 39.9856C12.0741 40.5427 11.7517 41.1038 11.3737 41.6569L10.8563 42.5626C10.717 42.8632 10.538 43.264 10.3668 43.6968C10.1917 44.1417 10.0644 44.4984 9.95295 44.8551C9.68632 45.6967 9.55499 46.5664 9.55499 47.4481C9.55499 48.2777 9.67438 49.1113 9.90918 49.9329L10.0922 50.474C10.4743 51.4439 10.9916 52.3376 11.6244 53.1271C12.277 53.9367 13.0451 54.6341 13.9087 55.1992C14.5892 55.644 15.3174 56.0208 16.0775 56.3213C16.8456 56.6219 17.6535 56.8424 18.4733 56.9746L19.0145 57.0347C20.8531 57.159 22.417 57.2191 23.794 57.2231C23.794 57.2231 23.8736 57.2231 23.9173 57.2231C23.985 58.1729 24.1521 59.1508 24.4307 60.1448C25.2983 63.2468 27.2522 65.5272 29.9345 66.7215C29.6957 67.483 29.6002 68.1483 29.5644 68.6172C29.5126 69.3106 29.5445 69.9919 29.6599 70.6532C28.5615 71.1221 27.5308 71.8074 26.5996 72.7011C25.0595 74.176 24.1681 75.8593 23.7781 76.7169C23.1533 77.9193 21.8201 81.0253 22.5006 84.5602C23.1334 87.8546 25.8315 93.4374 36.8033 93.7861C37.5872 93.8101 38.3593 93.8222 39.1035 93.8222C43.9904 93.8222 48.0018 93.2731 51.0383 92.187C53.4061 91.3333 54.8825 90.2632 55.8018 89.3094C58.0981 87.3496 59.7058 85.0852 60.5972 82.6565C61.5205 82.6404 63.3233 82.5082 65.1459 81.5263C65.4046 81.7387 65.6752 81.9311 65.9657 82.1114C66.6223 82.5162 67.3387 82.8248 68.1704 83.0613C69.4479 83.422 70.8606 83.6143 72.2574 83.6143C74.2552 83.6143 76.1455 83.2256 77.7214 82.4962C78.2109 82.2677 78.6686 81.9992 79.0984 81.7066C79.8863 82.1836 80.734 82.5563 81.6334 82.8088C82.6283 83.0893 83.6868 83.2296 84.7772 83.2296C85.7682 83.2296 86.7511 83.1134 87.7977 82.8689C88.5101 82.7006 89.2384 82.4761 89.9706 82.1916C90.1059 82.2797 90.2412 82.3639 90.3805 82.4441C91.0053 82.8048 91.6898 83.0933 92.422 83.3057C92.9553 83.458 93.5005 83.5783 94.0338 83.6544C94.5909 83.7346 95.168 83.7747 95.745 83.7747C96.2186 83.7747 96.6921 83.7466 97.1378 83.6985C97.5995 83.6464 98.0253 83.5823 98.4471 83.4941C98.8849 83.4019 99.2829 83.3017 99.6569 83.1895C99.8042 83.1454 99.9435 83.0973 100.087 83.0533C100.333 83.3939 100.588 83.7266 100.863 84.0512C101.448 84.7525 102.1 85.4178 102.781 86.007C103.43 86.5801 104.126 87.1091 104.934 87.6422C105.662 88.1191 106.438 88.5599 107.262 88.9647C108.058 89.3535 108.894 89.6941 109.741 89.9827C110.577 90.2673 111.444 90.5037 112.328 90.6841L112.786 90.7602C113.418 90.8404 114.071 90.8804 114.724 90.8804C115.034 90.8804 115.348 90.8724 115.631 90.8564C116.558 90.8083 117.521 90.6841 118.484 90.4877C119.097 90.3634 119.714 90.2112 120.327 90.0308C120.928 89.8545 121.533 89.65 122.185 89.3936C122.806 89.1491 123.411 88.8846 123.968 88.608C124.553 88.3195 125.126 88.0029 125.675 87.6702C126.26 87.3135 126.834 86.9288 127.367 86.52C127.912 86.1072 128.437 85.6583 128.927 85.1974C129.464 84.6884 129.969 84.1353 130.455 83.5222C130.885 82.9731 131.271 82.404 131.613 81.8269C131.916 81.3459 132.198 80.849 132.453 80.34C132.731 79.7949 132.99 79.2138 133.229 78.6086C133.69 77.4343 134.295 75.6389 134.22 73.663C134.1 69.9879 131.721 67.0502 128.155 66.1765L128.139 66.1524C127.689 66.0442 127.228 65.9681 126.762 65.928C126.965 65.6474 127.16 65.3589 127.339 65.0583C127.637 64.5573 127.892 64.0604 128.127 63.5353C128.374 62.9783 128.585 62.4052 128.752 61.8441C128.927 61.2469 129.058 60.6297 129.142 60.0165C129.193 59.6358 129.221 59.251 129.237 58.8703C129.794 59.0266 130.359 59.1508 130.925 59.231C131.522 59.3152 132.126 59.3552 132.723 59.3552C133.181 59.3552 133.663 59.3312 134.156 59.2831C134.649 59.235 135.151 59.1589 135.644 59.0546C136.122 58.9545 136.56 58.8422 136.986 58.714C137.467 58.5697 137.873 58.4294 138.263 58.2731C138.776 58.0687 139.238 57.8563 139.672 57.6199C140.145 57.3634 140.563 57.1029 140.945 56.8263C141.419 56.4897 141.861 56.1089 142.266 55.7001C142.672 55.2913 143.074 54.8064 143.417 54.3094L143.962 53.3235C144.24 52.6823 144.443 52.0691 144.583 51.4439C144.762 50.6303 144.821 49.8167 144.762 49.0232L144.774 49.0312Z" fill="#4343FF"/>
<path d="M30.3722 49.8688H30.3802C30.6707 49.5802 30.8617 49.2436 30.9612 48.8589C31.0607 48.4741 31.0567 48.0413 30.9612 47.5643C30.8657 47.0874 30.7423 46.5664 30.5991 46.0093C30.4558 45.4522 30.2847 44.8511 30.0937 44.2098C29.8987 43.5686 29.7196 42.8913 29.5485 42.1779C29.3773 41.4645 29.2221 40.715 29.0789 39.9255C28.9356 39.14 28.8759 38.3184 28.9077 37.4607C28.9396 36.6031 29.059 35.7133 29.2699 34.7915C29.5604 35.0039 29.8071 35.2164 30.0061 35.4368C30.2051 35.6572 30.3643 35.8776 30.4757 36.1061C30.5871 36.3345 30.7185 36.571 30.8617 36.8235C31.005 37.076 31.1682 37.3365 31.3433 37.613C31.4388 37.8575 31.5422 38.0939 31.6457 38.3304C31.7492 38.5669 31.8606 38.7953 31.972 39.0238C32.0835 39.2522 32.2068 39.4686 32.3382 39.673C32.4695 39.8774 32.6127 40.0778 32.768 40.2622C32.9192 40.4505 33.0823 40.6189 33.2495 40.7671C33.4166 40.9154 33.5957 41.0477 33.7827 41.1639C33.9658 41.2761 34.1568 41.3643 34.3558 41.4204C34.5548 41.4765 34.7577 41.5046 34.9647 41.5046C35.303 41.5046 35.6532 41.4244 36.0153 41.2601C36.3774 41.0958 36.7515 40.8553 37.1375 40.5307C37.3126 40.3864 37.4838 40.186 37.643 39.9295C37.8021 39.673 37.9573 39.3644 38.1006 38.9997C38.2439 38.635 38.3911 38.2663 38.5344 37.8936C38.6776 37.5208 38.8249 37.1441 38.9682 36.7634C39.1114 36.3826 39.2547 36.0259 39.398 35.6933C39.5412 35.3606 39.6765 35.052 39.8158 34.7675C39.9511 34.4829 40.0944 34.2705 40.2456 34.1303C40.3968 33.99 40.5481 33.9178 40.7112 33.9178C40.8386 33.9178 40.9659 33.9699 41.0933 34.0701C41.2206 34.1703 41.34 34.3226 41.4634 34.527C41.5827 34.7314 41.7101 34.9999 41.8454 35.3366C41.9807 35.6732 42.116 36.078 42.2633 36.5469C42.4742 36.9998 42.6174 37.4567 42.705 37.9096C42.7925 38.3625 42.8124 38.8194 42.7726 39.2722C42.7328 39.7251 42.6612 40.174 42.5617 40.6108C42.4622 41.0477 42.3309 41.4765 42.1677 41.9013C42.0046 42.3222 41.8335 42.735 41.6544 43.1357C41.4753 43.5365 41.2803 43.9293 41.0813 44.31C40.8784 44.6908 40.6993 45.0595 40.5441 45.4162C40.3889 45.7729 40.2536 46.1175 40.1382 46.4502C40.0267 46.7828 39.9551 47.0994 39.9272 47.4C39.8994 47.7006 39.9113 47.9852 39.971 48.2497C40.0267 48.5182 40.162 48.7667 40.3769 48.9911C40.5918 49.2155 40.8823 49.4239 41.2524 49.6123C41.6225 49.8007 42.0842 49.961 42.6413 50.0973C43.1985 50.2335 43.8432 50.3497 44.5873 50.4379C45.3275 50.5261 46.1991 50.5902 47.198 50.6263C48.1968 50.6624 49.3231 50.6744 50.5806 50.6583C50.8074 50.6263 51.0303 50.5902 51.2571 50.5541C51.484 50.5181 51.7068 50.478 51.9337 50.4379C52.1605 50.3978 52.3794 50.3497 52.5903 50.2936C52.8012 50.2375 53.0121 50.1734 53.2111 50.0973C53.4141 50.0251 53.6051 49.9369 53.7842 49.8287C53.9633 49.7205 54.1384 49.6003 54.2975 49.464C54.4567 49.3278 54.604 49.1674 54.7313 48.9831C54.8587 48.7987 54.9741 48.5943 55.0696 48.3699C55.2288 47.9491 55.3521 47.5643 55.4357 47.2157C55.5193 46.867 55.567 46.5544 55.575 46.2778C55.583 46.0013 55.5631 45.7448 55.5193 45.5043C55.4755 45.2639 55.4039 45.0434 55.3084 44.8431C55.2128 44.6387 55.0974 44.4383 54.9621 44.2419C54.8268 44.0455 54.6796 43.8451 54.5085 43.6527C54.3373 43.4564 54.1662 43.2399 53.9871 43.0035C53.8081 42.767 53.629 42.5025 53.4419 42.218C53.2549 41.9334 53.0718 41.6168 52.8848 41.2641C52.6977 40.9114 52.5147 40.5227 52.3276 40.1018C52.1406 39.681 51.9695 39.1961 51.8143 38.655C51.6591 38.114 51.5158 37.5088 51.3845 36.8435C51.3049 36.6992 51.2173 36.4948 51.1298 36.2343C51.0422 35.9738 50.9507 35.6572 50.8512 35.2845C50.7557 34.9118 50.6522 34.507 50.5448 34.0701C50.4373 33.6333 50.3219 33.1604 50.2025 32.6594C50.0832 32.1584 49.9558 31.6374 49.8205 31.0964C49.6852 30.5553 49.5499 29.9982 49.4026 29.4251C49.2594 28.848 49.1082 28.2829 48.949 27.7218C48.7898 27.1607 48.6306 26.6116 48.4595 26.0666C48.2884 25.5215 48.1133 24.9965 47.9342 24.4915C47.7551 23.9866 47.5641 23.4976 47.3731 23.0247C47.1781 22.5558 46.9791 22.135 46.7682 21.7582C46.5572 21.3815 46.3423 21.0609 46.1155 20.7843C45.2798 20.3154 44.4918 19.9627 43.7596 19.7263C43.0273 19.4898 42.3468 19.3736 41.7181 19.3736C41.2524 19.3736 40.8147 19.4337 40.4127 19.558C40.0108 19.6822 39.6407 19.8625 39.3024 20.107C38.9642 20.3515 38.6418 20.636 38.3354 20.9647C38.029 21.2933 37.7385 21.666 37.4639 22.0788C37.1893 22.4917 36.9226 22.9365 36.66 23.4054C36.3973 23.8743 36.1426 24.3753 35.8919 24.9003C35.6412 25.4294 35.3825 25.9704 35.1119 26.5235C34.8413 27.0766 34.5627 27.6497 34.2722 28.2308C34.0772 27.9222 33.9141 27.6096 33.7788 27.293C33.6435 26.9764 33.532 26.6557 33.4524 26.3311C33.3728 26.0065 33.2933 25.6818 33.2176 25.3572C33.142 25.0326 33.0664 24.708 32.9948 24.3833C32.9232 24.0587 32.8396 23.7421 32.7481 23.4335C32.6565 23.1249 32.5531 22.8243 32.4416 22.5317C32.3302 22.2392 32.1829 21.9626 32.0078 21.7061C31.8327 21.4496 31.6218 21.2052 31.3791 20.9767C31.2 20.8645 30.9612 20.7523 30.6548 20.6441C30.3484 20.5359 29.9783 20.4276 29.5445 20.3194C29.1107 20.2152 28.6531 20.1351 28.1795 20.083C27.7059 20.0309 27.2085 20.0028 26.6951 20.0028C26.1817 20.0028 25.6803 20.0429 25.1988 20.1231C24.7172 20.2032 24.2476 20.3275 23.798 20.4878C23.3483 20.6521 22.9622 20.8765 22.6399 21.1691C22.3175 21.4617 22.0589 21.8183 21.8678 22.2392C21.45 23.165 21.1038 24.1028 20.8332 25.0606C20.5625 26.0185 20.3675 26.9924 20.2482 27.9783C20.1288 28.9682 20.0134 29.9541 19.9059 30.9401C19.7985 31.926 19.695 32.9079 19.5995 33.8898C19.504 34.8717 19.3766 35.8456 19.2254 36.8074C19.0742 37.7693 18.8911 38.7272 18.6802 39.677C18.4693 40.6269 18.1628 41.5527 17.7609 42.4544C17.359 43.3562 16.8575 44.2419 16.2646 45.0996C16.1372 45.3761 16.0178 45.6446 15.9144 45.9091C15.8109 46.1736 15.7154 46.4301 15.6358 46.6826C15.5562 46.9351 15.5164 47.1916 15.5164 47.4561C15.5164 47.7206 15.5562 47.9892 15.6358 48.2657C15.795 48.6705 16.0019 49.0312 16.2566 49.3478C16.5113 49.6644 16.8098 49.9369 17.156 50.1614C17.5022 50.3898 17.8604 50.5742 18.2385 50.7225C18.6165 50.8708 19.0025 50.975 19.4045 51.0391C21.0799 51.1513 22.5484 51.2114 23.8059 51.2154C25.0635 51.2194 26.1181 51.1673 26.9657 51.0631C27.8094 50.9589 28.5177 50.8066 29.0868 50.6062C29.6559 50.4059 30.0817 50.1614 30.3722 49.8688Z" fill="#FFCAD8"/>
<path d="M104.52 52.4819V52.4739C105.149 52.55 105.889 52.6021 106.737 52.6342C107.584 52.6662 108.543 52.6743 109.614 52.6582C109.805 52.6302 109.996 52.6021 110.187 52.5701C110.378 52.538 110.569 52.5059 110.764 52.4699C110.955 52.4338 111.142 52.3937 111.325 52.3456C111.508 52.2975 111.683 52.2414 111.854 52.1813C112.026 52.1212 112.189 52.045 112.344 51.9529C112.499 51.8647 112.642 51.7605 112.782 51.6443C112.917 51.528 113.04 51.3918 113.152 51.2355C113.263 51.0792 113.359 50.9068 113.438 50.7144C113.574 50.3578 113.681 50.0291 113.753 49.7325C113.824 49.436 113.864 49.1715 113.872 48.935C113.88 48.7025 113.864 48.4821 113.824 48.2777C113.788 48.0733 113.729 47.885 113.645 47.7126C113.562 47.5403 113.466 47.368 113.351 47.1996C113.239 47.0313 113.108 46.863 112.965 46.6987C112.821 46.5343 112.674 46.35 112.523 46.1456C112.372 45.9412 112.217 45.7208 112.061 45.4803C111.902 45.2398 111.747 44.9673 111.588 44.6707C111.429 44.3701 111.273 44.0415 111.114 43.6808C110.955 43.3241 110.812 42.9113 110.676 42.4504C110.541 41.9895 110.422 41.4765 110.31 40.9074C110.243 40.7832 110.171 40.6108 110.095 40.3904C110.02 40.17 109.94 39.9015 109.861 39.5848C109.777 39.2682 109.69 38.9236 109.598 38.5508C109.506 38.1781 109.407 37.7773 109.303 37.3525C109.2 36.9237 109.093 36.4828 108.981 36.0219C108.87 35.561 108.75 35.0881 108.627 34.5992C108.504 34.1102 108.376 33.6253 108.241 33.1524C108.106 32.6754 107.97 32.2065 107.823 31.7456C107.68 31.2847 107.529 30.8359 107.377 30.407C107.222 29.9742 107.063 29.5614 106.9 29.1606C106.737 28.7598 106.566 28.4031 106.386 28.0865C106.207 27.7699 106.024 27.4934 105.833 27.2569C105.121 26.8561 104.452 26.5555 103.832 26.3592C103.207 26.1588 102.63 26.0586 102.096 26.0586C101.698 26.0586 101.328 26.1107 100.986 26.2149C100.644 26.3191 100.33 26.4754 100.043 26.6798C99.7564 26.8882 99.4818 27.1287 99.2232 27.4092C98.9645 27.6897 98.7178 28.0024 98.483 28.355C98.2482 28.7077 98.0213 29.0845 97.7985 29.4812C97.5756 29.882 97.3607 30.3068 97.1458 30.7517C96.9349 31.2006 96.7121 31.6615 96.4852 32.1344C96.2584 32.6073 96.0196 33.0922 95.7729 33.5892C95.6097 33.3287 95.4664 33.0602 95.351 32.7917C95.2356 32.5231 95.1441 32.2506 95.0725 31.9741C95.0048 31.6975 94.9372 31.421 94.8735 31.1485C94.8098 30.8759 94.7461 30.5954 94.6825 30.3229C94.6228 30.0463 94.5511 29.7778 94.4715 29.5173C94.392 29.2568 94.3044 29.0003 94.2089 28.7518C94.1134 28.5033 93.99 28.2709 93.8388 28.0504C93.6876 27.83 93.5085 27.6216 93.3055 27.4292C93.1543 27.3331 92.9474 27.2369 92.6887 27.1447C92.43 27.0525 92.1156 26.9603 91.7455 26.8722C91.3754 26.784 90.9894 26.7159 90.5835 26.6718C90.1776 26.6277 89.7597 26.6036 89.322 26.6036C88.8842 26.6036 88.4584 26.6397 88.0485 26.7078C87.6386 26.776 87.2406 26.8802 86.8586 27.0164C86.4765 27.1527 86.1462 27.3491 85.8716 27.5976C85.5971 27.846 85.3782 28.1506 85.215 28.5073C84.8569 29.2929 84.5663 30.0944 84.3355 30.908C84.1047 31.7216 83.9416 32.5472 83.8381 33.3888C83.7346 34.2304 83.6391 35.0681 83.5436 35.9057C83.4521 36.7433 83.3645 37.581 83.2809 38.4146C83.1217 40.0497 82.6999 41.6168 82.3258 43.1798C81.9517 44.7429 81.6294 46.3059 81.6573 47.9331C81.6612 48.1735 81.6732 48.414 81.6931 48.6585C81.713 48.9029 81.7448 49.1474 81.7806 49.3919C81.8204 49.6404 81.8682 49.8848 81.9319 50.1293C81.9955 50.3738 82.0791 50.6062 82.1905 50.8307C82.8551 52.1613 84.0769 52.7865 85.4379 53.039C86.7989 53.2915 88.3072 53.1752 89.5368 53.0189C90.2572 52.9307 90.8581 52.7985 91.3396 52.6302C91.8211 52.4618 92.1873 52.2534 92.434 52.005C92.6807 51.7565 92.8439 51.4679 92.9275 51.1433C93.011 50.8146 93.011 50.4499 92.9275 50.0411C92.8439 49.6364 92.7444 49.1915 92.621 48.7186C92.4977 48.2416 92.3544 47.7327 92.1912 47.1876C92.0281 46.6425 91.8729 46.0654 91.7296 45.4602C91.5863 44.8551 91.451 44.2138 91.3277 43.5485C91.2043 42.8792 91.1565 42.1819 91.1844 41.4525C91.2123 40.723 91.3157 39.9696 91.4908 39.1841C91.7376 39.3644 91.9445 39.5448 92.1156 39.7331C92.2867 39.9175 92.4221 40.1099 92.5176 40.3022C92.6131 40.4946 92.7245 40.699 92.8479 40.9114C92.9712 41.1238 93.1065 41.3483 93.2578 41.5847C93.3413 41.7931 93.4249 41.9935 93.5164 42.1939C93.604 42.3943 93.6995 42.5907 93.795 42.7831C93.8905 42.9754 93.994 43.1598 94.1094 43.3361C94.2208 43.5125 94.3442 43.6808 94.4755 43.8371C94.6068 43.9974 94.7422 44.1377 94.8854 44.2659C95.0287 44.3942 95.1799 44.5064 95.3391 44.6026C95.4983 44.6988 95.6575 44.7709 95.8286 44.819C95.9997 44.8671 96.1708 44.8911 96.3459 44.8911C96.6325 44.8911 96.9309 44.823 97.2413 44.6827C97.5518 44.5425 97.8661 44.3381 98.1964 44.0615C98.3477 43.9373 98.4909 43.765 98.6262 43.5485C98.7615 43.3321 98.8929 43.0676 99.0162 42.759C99.1396 42.4504 99.263 42.1338 99.3863 41.8172C99.5097 41.5006 99.6331 41.1799 99.7564 40.8553C99.8798 40.5307 99.9992 40.2261 100.123 39.9455C100.242 39.661 100.361 39.4005 100.477 39.16C100.592 38.9196 100.716 38.7392 100.843 38.619C100.97 38.4987 101.102 38.4386 101.237 38.4386C101.348 38.4386 101.456 38.4827 101.559 38.5669C101.667 38.655 101.77 38.7833 101.874 38.9556C101.977 39.128 102.084 39.3564 102.196 39.645C102.307 39.9295 102.427 40.2742 102.55 40.675C102.729 41.0597 102.853 41.4485 102.924 41.8332C102.996 42.218 103.016 42.6067 102.98 42.9915C102.944 43.3762 102.884 43.7569 102.801 44.1297C102.713 44.5024 102.606 44.8671 102.467 45.2238C102.331 45.5845 102.184 45.9332 102.029 46.2738C101.874 46.6145 101.71 46.9471 101.539 47.2718C101.368 47.5964 101.217 47.909 101.082 48.2136C100.946 48.5182 100.835 48.8108 100.739 49.0913C100.644 49.3759 100.584 49.6444 100.56 49.8969C100.536 50.1494 100.548 50.3938 100.596 50.6223C100.644 50.8507 100.759 51.0591 100.938 51.2515C101.117 51.4439 101.368 51.6202 101.683 51.7805C101.997 51.9408 102.391 52.0771 102.865 52.1933C103.338 52.3095 103.887 52.4057 104.52 52.4819Z" fill="#FFCAD8"/>
<path d="M79.958 50.6543L79.95 50.6463C80.1171 50.478 80.2684 50.2936 80.3997 50.1013C80.5151 49.8367 80.6027 49.5843 80.6544 49.3478C80.7061 49.1113 80.726 48.8909 80.7101 48.6825C80.6942 48.4741 80.6663 48.2657 80.6226 48.0573C80.5788 47.8489 80.5191 47.6325 80.4475 47.4201C80.3718 47.2076 80.2923 46.9752 80.2047 46.7347C80.1172 46.4943 80.0216 46.2297 79.9182 45.9572C79.8147 45.6847 79.7232 45.3841 79.6356 45.0595C79.5481 44.7348 79.4764 44.3822 79.4088 44.0054C79.3411 43.6287 79.2934 43.2119 79.2655 42.759C79.2377 42.3061 79.2257 41.8092 79.2337 41.2801C79.2416 40.7471 79.2814 40.158 79.3491 39.5167C79.4167 38.8755 79.5202 38.1741 79.6515 37.4206C79.6794 37.0078 79.7072 36.6111 79.7351 36.2303C79.763 35.8496 79.7829 35.4849 79.8067 35.1362C79.8306 34.7875 79.8187 34.4308 79.7789 34.0661C79.7391 33.7014 79.6675 33.3247 79.564 32.9399C79.4884 32.5111 79.365 32.0903 79.1899 31.6775C79.0148 31.2647 78.788 30.8559 78.5094 30.4591C78.2308 30.0583 77.9125 29.6816 77.5623 29.3289C77.212 28.9762 76.8221 28.6396 76.3962 28.331C75.9704 28.0224 75.5128 27.7418 75.0193 27.4934C74.5258 27.2449 74.0005 27.0285 73.4434 26.8441C72.6037 26.5636 71.7322 26.3912 70.8527 26.291C69.9732 26.1908 69.0817 26.1708 68.2023 26.1908C67.4024 26.2109 66.5706 26.1788 65.4802 26.271C64.3898 26.3632 63.0447 26.5756 61.2181 27.0886C59.4631 27.5815 58.0981 28.359 57.1947 29.3089C56.2913 30.2587 55.8456 31.3889 55.9252 32.5832C55.9411 32.8117 55.9531 33.0762 56.0008 33.3247C56.0486 33.5772 56.1282 33.8176 56.2794 33.998C56.4306 34.1824 56.6256 34.3587 56.8365 34.515C57.0475 34.6673 57.2743 34.7995 57.4932 34.8917C57.7717 35.008 58.0702 35.0761 58.3687 35.1202C58.6672 35.1643 58.9736 35.1803 59.28 35.1963C59.4432 35.2043 59.6103 35.2124 59.7735 35.2124C59.9366 35.2124 60.1038 35.2043 60.263 35.1803C60.4341 35.1562 60.6012 35.1162 60.7684 35.0641C60.9355 35.016 61.0987 34.9559 61.2618 34.8997C61.5643 34.7915 61.8747 34.6913 62.1772 34.5791C62.4796 34.4629 62.7741 34.3306 63.0527 34.1663C63.3153 34.01 63.5302 33.8016 63.7531 33.5972C63.9759 33.3928 64.1988 33.1804 64.4734 33.0201C64.7281 32.8678 64.9867 32.7195 65.2494 32.5832C65.5121 32.451 65.7866 32.3308 66.0692 32.2426C66.3796 32.1464 66.698 32.0903 67.0163 32.0542C67.3387 32.0222 67.661 32.0141 67.9874 32.0141C68.254 32.0141 68.5246 32.0262 68.7912 32.0622C69.0579 32.0983 69.3165 32.1584 69.5633 32.2626C70.0169 32.459 70.395 32.8037 70.6537 33.2285C70.9124 33.6533 71.0556 34.1503 71.0437 34.6473C71.0317 35.0641 70.9163 35.4729 70.7253 35.8376C70.5343 36.2063 70.2637 36.5309 69.9374 36.7874C69.5553 37.088 69.0539 37.2643 68.5326 37.3846C68.0112 37.5048 67.47 37.5609 67.0044 37.6371C65.7309 37.8375 64.4495 37.9457 63.184 38.1701C61.9185 38.3945 60.6649 38.7272 59.4511 39.3804C59.1248 39.5568 58.7985 39.7492 58.5 39.9656C58.1976 40.182 57.919 40.4305 57.6762 40.711C56.8724 41.6529 56.4863 43.0957 56.4107 44.5825C56.3351 46.0694 56.5699 47.5924 57.0156 48.6905C57.2066 49.1634 57.4613 49.5963 57.7757 49.981C58.0901 50.3698 58.4682 50.7145 58.9099 51.019C59.3516 51.3236 59.8372 51.5481 60.3744 51.7004C60.9116 51.8527 61.4927 51.9288 62.1254 51.9288C62.7582 51.9288 63.3591 51.8527 64.0237 51.6964C64.6883 51.5401 65.3847 51.3076 66.109 50.999C66.8333 50.6904 67.5934 50.2696 68.3813 49.7446C69.1693 49.2195 69.9931 48.5863 70.8447 47.8489C70.6815 48.2617 70.5741 48.6464 70.5184 49.0031C70.4627 49.3598 70.4627 49.6845 70.5144 49.977C70.5661 50.2736 70.6537 50.5421 70.7731 50.7866C70.8925 51.0311 71.0516 51.2475 71.2427 51.4399C71.4337 51.6322 71.6526 51.7966 71.8993 51.9368C72.146 52.0771 72.4206 52.1933 72.7191 52.2815C73.0215 52.3697 73.332 52.4378 73.6503 52.4819C73.9687 52.526 74.299 52.55 74.6372 52.55C74.9158 52.55 75.1984 52.534 75.4809 52.5059C75.7635 52.4779 76.05 52.4338 76.3365 52.3737C76.6231 52.3136 76.9016 52.2454 77.1802 52.1613C77.4588 52.0771 77.7254 51.9889 77.9881 51.8847C78.2507 51.7805 78.5014 51.6683 78.7362 51.5401C78.971 51.4118 79.1899 51.2796 79.3968 51.1313C79.6038 50.983 79.7908 50.8227 79.958 50.6543ZM67.856 43.6487C67.5138 43.9613 67.0124 44.2259 66.7457 44.3581C66.5069 44.4783 66.2164 44.5545 65.9219 44.6066C65.6275 44.6627 65.325 44.6948 65.0624 44.7308C64.943 44.7469 64.8077 44.7749 64.6763 44.7789C64.545 44.7829 64.4177 44.7709 64.3102 44.7068C64.3102 44.7068 64.2983 44.6988 64.2943 44.6988C64.2903 44.6988 64.2863 44.6908 64.2784 44.6908C64.1152 44.5745 63.9799 44.306 63.8924 44.0215C63.8048 43.7329 63.769 43.4283 63.8128 43.2439C63.8725 43.0035 64.0237 42.8071 64.2187 42.6548C64.4137 42.5025 64.6525 42.3903 64.8873 42.3101C65.2932 42.1779 65.719 42.1097 66.1448 42.1097C66.5706 42.1097 66.9964 42.1739 67.4024 42.3061C67.5138 42.3422 67.6252 42.3863 67.7287 42.4384C67.8322 42.4905 67.9316 42.5546 68.0192 42.6348C68.3853 42.9674 68.2023 43.3321 67.856 43.6487Z" fill="#FFCAD8"/>
<path d="M138.733 48.8669L138.725 48.8589C138.681 48.6464 138.621 48.434 138.55 48.2216C138.474 48.0092 138.394 47.7767 138.307 47.5363C138.219 47.2958 138.124 47.0313 138.02 46.7588C137.917 46.4862 137.825 46.1857 137.738 45.861C137.65 45.5364 137.578 45.1837 137.511 44.807C137.443 44.4303 137.395 44.0134 137.368 43.5606C137.34 43.1077 137.328 42.6107 137.336 42.0817C137.344 41.5487 137.383 40.9595 137.451 40.3183C137.519 39.677 137.622 38.9757 137.754 38.2222C137.781 37.8094 137.809 37.4126 137.837 37.0319C137.865 36.6511 137.885 36.2864 137.909 35.9378C137.933 35.5891 137.921 35.2324 137.881 34.8677C137.841 34.503 137.77 34.1262 137.666 33.7415C137.59 33.3127 137.467 32.8918 137.292 32.479C137.117 32.0662 136.89 31.6574 136.611 31.2607C136.333 30.8599 136.015 30.4832 135.664 30.1305C135.314 29.7778 134.924 29.4411 134.498 29.1325C134.072 28.8239 133.615 28.5434 133.121 28.2949C132.628 28.0464 132.103 27.83 131.545 27.6457C130.706 27.3651 129.834 27.1928 128.955 27.0926C128.075 26.9924 127.184 26.9724 126.304 26.9924C125.504 27.0124 124.673 26.9804 123.582 27.0725C122.492 27.1647 121.147 27.3771 119.32 27.8901C117.565 28.3831 116.2 29.1606 115.297 30.1104C114.393 31.0603 113.948 32.1905 114.027 33.3848C114.043 33.6132 114.055 33.8778 114.103 34.1262C114.151 34.3787 114.23 34.6192 114.381 34.7996C114.533 34.9839 114.728 35.1602 114.939 35.3166C115.15 35.4688 115.376 35.6011 115.595 35.6933C115.874 35.8095 116.172 35.8776 116.471 35.9217C116.769 35.9658 117.076 35.9818 117.382 35.9979C117.545 36.0059 117.712 36.0139 117.876 36.0139C118.039 36.0139 118.206 36.0059 118.365 35.9818C118.536 35.9578 118.703 35.9177 118.87 35.8656C119.038 35.8175 119.201 35.7574 119.364 35.7013C119.666 35.5931 119.977 35.4929 120.279 35.3807C120.582 35.2645 120.876 35.1322 121.155 34.9679C121.417 34.8116 121.632 34.6032 121.855 34.3988C122.078 34.1944 122.301 33.982 122.575 33.8217C122.83 33.6694 123.089 33.5211 123.351 33.3848C123.614 33.2525 123.889 33.1323 124.171 33.0441C124.482 32.948 124.8 32.8918 125.118 32.8558C125.441 32.8237 125.763 32.8157 126.089 32.8157C126.356 32.8157 126.627 32.8277 126.893 32.8638C127.16 32.8999 127.419 32.96 127.665 33.0642C128.119 33.2606 128.497 33.6052 128.756 34.0301C129.014 34.4549 129.158 34.9518 129.146 35.4488C129.134 35.8656 129.018 36.2744 128.827 36.6391C128.636 37.0078 128.366 37.3325 128.039 37.589C127.657 37.8895 127.156 38.0659 126.635 38.1861C126.113 38.3064 125.572 38.3625 125.106 38.4386C123.833 38.639 122.552 38.7472 121.286 38.9717C120.021 39.1961 118.767 39.5287 117.553 40.182C117.227 40.3583 116.901 40.5507 116.602 40.7671C116.3 40.9836 116.021 41.232 115.778 41.5126C114.974 42.4544 114.588 43.8972 114.513 45.3841C114.437 46.871 114.672 48.3939 115.118 49.4921C115.309 49.965 115.563 50.3978 115.878 50.7826C116.192 51.1713 116.57 51.516 117.012 51.8206C117.454 52.1252 117.939 52.3496 118.476 52.5019C119.014 52.6542 119.595 52.7304 120.227 52.7304C120.86 52.7304 121.461 52.6542 122.126 52.4979C122.79 52.3416 123.487 52.1092 124.211 51.8006C124.935 51.492 125.695 51.0711 126.483 50.5461C127.271 50.0211 128.095 49.3879 128.947 48.6504C128.784 49.0632 128.676 49.448 128.62 49.8047C128.565 50.1614 128.565 50.486 128.616 50.7786C128.668 51.0752 128.756 51.3437 128.875 51.5882C128.995 51.8326 129.154 52.049 129.345 52.2414C129.536 52.4338 129.755 52.5981 130.001 52.7384C130.248 52.8787 130.523 52.9949 130.821 53.0831C131.124 53.1712 131.434 53.2394 131.752 53.2834C132.071 53.3275 132.401 53.3516 132.739 53.3516C133.018 53.3516 133.3 53.3355 133.583 53.3075C133.866 53.2794 134.152 53.2353 134.439 53.1752C134.725 53.1151 135.004 53.047 135.282 52.9628C135.561 52.8787 135.827 52.7905 136.09 52.6863C136.353 52.5821 136.603 52.4699 136.838 52.3416C137.073 52.2134 137.292 52.0811 137.499 51.9328C137.706 51.7845 137.893 51.6242 138.06 51.4559C138.227 51.2876 138.378 51.1032 138.51 50.9108C138.625 50.6463 138.713 50.3938 138.764 50.1574C138.816 49.9209 138.836 49.7005 138.82 49.4921C138.804 49.2837 138.776 49.0753 138.733 48.8669ZM125.958 44.4503C125.616 44.7629 125.114 45.0274 124.848 45.1597C124.609 45.2799 124.318 45.356 124.024 45.4081C123.73 45.4643 123.427 45.4963 123.164 45.5324C123.045 45.5484 122.91 45.5765 122.778 45.5805C122.647 45.5845 122.52 45.5725 122.412 45.5083C122.408 45.5083 122.4 45.5003 122.396 45.5003C122.392 45.5003 122.388 45.4923 122.38 45.4923C122.217 45.3761 122.082 45.1076 121.994 44.823C121.907 44.5345 121.871 44.2299 121.915 44.0455C121.975 43.805 122.126 43.6087 122.321 43.4564C122.516 43.3041 122.755 43.1918 122.989 43.1117C123.395 42.9794 123.821 42.9113 124.247 42.9113C124.673 42.9113 125.098 42.9754 125.504 43.1077C125.616 43.1438 125.727 43.1878 125.831 43.2399C125.934 43.292 126.034 43.3562 126.121 43.4363C126.487 43.769 126.304 44.1337 125.958 44.4503Z" fill="#FFCAD8"/>
<path d="M100.851 73.2783C100.787 73.0939 100.716 72.8935 100.636 72.6811C100.56 72.4687 100.477 72.2403 100.385 71.9998C100.294 71.7593 100.214 71.4988 100.138 71.2103C100.063 70.9257 99.9992 70.6171 99.9395 70.2845C99.8798 69.9518 99.84 69.5871 99.8121 69.1903C99.7843 68.7936 99.7763 68.3567 99.7843 67.8918C99.7922 67.4229 99.8241 66.9099 99.8878 66.3448C99.9474 65.7797 100.039 65.1665 100.154 64.5052C100.178 64.1405 100.206 63.7919 100.226 63.4592C100.25 63.1266 100.27 62.8059 100.29 62.5013C100.31 62.1968 100.302 61.8841 100.266 61.5635C100.23 61.2429 100.166 60.9143 100.079 60.5776C100.015 60.2009 99.9037 59.8322 99.7485 59.4675C99.5933 59.1027 99.3943 58.7461 99.1515 58.3974C98.9048 58.0487 98.6302 57.7161 98.3198 57.4034C98.0094 57.0908 97.6711 56.7983 97.297 56.5257C96.923 56.2532 96.521 56.0087 96.0872 55.7923C95.6575 55.5759 95.1958 55.3835 94.7063 55.2232C93.9701 54.9787 93.206 54.8264 92.434 54.7383C91.6619 54.6501 90.8819 54.6301 90.1099 54.6501C89.4095 54.6701 88.6772 54.6421 87.7221 54.7222C86.767 54.8024 85.5851 54.9908 83.9853 55.4396C82.4452 55.8725 81.2474 56.5538 80.4554 57.3874C79.6635 58.221 79.2695 59.211 79.3411 60.261C79.3531 60.4614 79.365 60.6938 79.4088 60.9143C79.4486 61.1347 79.5202 61.3471 79.6515 61.5074C79.7829 61.6677 79.954 61.824 80.141 61.9603C80.3281 62.0966 80.527 62.2088 80.7181 62.2889C80.9648 62.3931 81.2235 62.4533 81.4861 62.4893C81.7488 62.5254 82.0194 62.5414 82.286 62.5534C82.4293 62.5615 82.5765 62.5655 82.7198 62.5655C82.8631 62.5655 83.0063 62.5575 83.1496 62.5374C83.3008 62.5174 83.4481 62.4813 83.5913 62.4372C83.7386 62.3931 83.8818 62.345 84.0251 62.2929C84.2917 62.2008 84.5623 62.1126 84.829 62.0084C85.0956 61.9042 85.3543 61.792 85.597 61.6437C85.8239 61.5074 86.0189 61.3271 86.2099 61.1427C86.4049 60.9624 86.5999 60.778 86.8387 60.6337C87.0615 60.5015 87.2884 60.3692 87.5192 60.253C87.75 60.1368 87.9888 60.0326 88.2355 59.9564C88.5061 59.8722 88.7847 59.8201 89.0672 59.7921C89.3498 59.764 89.6363 59.756 89.9189 59.756C90.1537 59.756 90.3924 59.764 90.6233 59.7961C90.8581 59.8282 91.0849 59.8803 91.2998 59.9724C91.6978 60.1448 92.0281 60.4494 92.2589 60.8181C92.4857 61.1908 92.6131 61.6276 92.6011 62.0645C92.5932 62.4292 92.4897 62.7859 92.3225 63.1105C92.1554 63.4352 91.9166 63.7197 91.6341 63.9441C91.2998 64.2087 90.862 64.365 90.4044 64.4652C89.9467 64.5694 89.4732 64.6215 89.0633 64.6856C87.945 64.8619 86.8228 64.9581 85.7125 65.1545C84.6021 65.3509 83.5038 65.6434 82.4372 66.2166C82.1507 66.3729 81.8642 66.5372 81.6015 66.7296C81.3349 66.9219 81.0921 67.1343 80.8772 67.3868C80.1729 68.2124 79.8306 69.4789 79.7669 70.7814C79.6993 72.084 79.9062 73.4185 80.2962 74.3844C80.4634 74.8012 80.6862 75.178 80.9608 75.5186C81.2394 75.8593 81.5697 76.1639 81.9557 76.4284C82.3417 76.6929 82.7715 76.8933 83.2411 77.0256C83.7107 77.1578 84.2241 77.2259 84.7772 77.2259C85.3304 77.2259 85.8597 77.1578 86.4447 77.0215C87.0257 76.8853 87.6386 76.6809 88.2753 76.4083C88.912 76.1358 89.5766 75.7711 90.2691 75.3102C90.9615 74.8493 91.6818 74.2962 92.43 73.647C92.2867 74.0117 92.1912 74.3483 92.1435 74.661C92.0957 74.9736 92.0917 75.2581 92.1395 75.5186C92.1833 75.7791 92.2589 76.0156 92.3663 76.228C92.4738 76.4404 92.6091 76.6328 92.7762 76.8011C92.9434 76.9694 93.1344 77.1137 93.3493 77.238C93.5642 77.3622 93.8069 77.4624 94.0696 77.5385C94.3322 77.6147 94.6068 77.6748 94.8854 77.7149C95.164 77.755 95.4545 77.775 95.749 77.775C95.9917 77.775 96.2385 77.763 96.4892 77.7349C96.7399 77.7069 96.9866 77.6708 97.2373 77.6187C97.4881 77.5666 97.7348 77.5065 97.9776 77.4343C98.2203 77.3622 98.4551 77.282 98.6859 77.1899C98.9167 77.0977 99.1356 76.9975 99.3426 76.8893C99.5495 76.7811 99.7405 76.6608 99.9236 76.5286C100.103 76.4003 100.27 76.2601 100.417 76.1118C100.564 75.9635 100.696 75.8032 100.815 75.6348C100.918 75.4024 100.99 75.182 101.038 74.9736C101.082 74.7652 101.098 74.5728 101.086 74.3884C101.074 74.2081 101.046 74.0237 101.01 73.8394C100.97 73.655 100.918 73.4666 100.855 73.2783H100.851ZM89.7995 69.9799V69.9719C89.501 70.2484 89.0633 70.4808 88.8285 70.6011C88.6175 70.7053 88.3629 70.7734 88.1042 70.8215C87.8455 70.8696 87.5789 70.8976 87.352 70.9297C87.2446 70.9417 87.1292 70.9658 87.0138 70.9738C86.8984 70.9778 86.7869 70.9698 86.6914 70.9097C86.6874 70.9097 86.6835 70.9057 86.6795 70.9017C86.6755 70.9017 86.6715 70.8976 86.6676 70.8936C86.5243 70.7934 86.4049 70.557 86.3253 70.3045C86.2457 70.052 86.2179 69.7835 86.2577 69.6232C86.3094 69.4108 86.4407 69.2384 86.6118 69.1062C86.783 68.9699 86.9899 68.8737 87.1968 68.8056C87.551 68.6894 87.9251 68.6292 88.2992 68.6292C88.6733 68.6292 89.0473 68.6854 89.4015 68.8016C89.501 68.8336 89.5965 68.8697 89.6881 68.9178C89.7796 68.9659 89.8671 69.018 89.9428 69.0901C90.2651 69.3827 90.1019 69.7033 89.7995 69.9799Z" fill="#FFCAD8"/>
<path d="M50.0633 68.5491L50.0474 68.5411C51.878 67.5391 52.5306 65.6354 52.7296 63.9802C52.9246 62.329 52.6659 60.9263 52.6659 60.9263C51.3567 55.3154 47.6954 52.9107 44.0342 51.9088C40.373 50.9068 36.7078 51.3076 35.4025 51.3076C34.0972 51.3076 32.3939 51.7084 31.2159 52.8105C30.038 53.9127 29.3853 55.7162 30.1693 58.5216C30.9533 61.3271 33.3092 61.828 35.4661 61.6277C37.6231 61.4273 39.585 60.5255 39.589 60.5255C40.182 60.253 41.4753 59.4514 42.7448 58.9825C44.0143 58.5136 45.2599 58.3813 45.7534 59.4514C46.0081 60.0045 45.9165 60.6538 45.6698 61.283C45.4231 61.9122 45.0172 62.5174 44.6391 62.9823C44.1337 63.6035 43.5009 64.1686 42.7806 64.6535C42.0603 65.1385 41.2485 65.5433 40.3809 65.8559C39.5014 66.1725 38.3235 66.4009 37.3485 66.8378C36.3735 67.2746 35.5935 67.9239 35.5099 69.0861C35.49 69.3346 35.5099 69.5911 35.5855 69.8276C35.6611 70.064 35.7765 70.2845 35.9517 70.4608C36.0511 70.557 36.1626 70.6371 36.282 70.7053C36.4013 70.7734 36.5287 70.8255 36.66 70.8736C37.3007 71.1061 37.9653 71.1662 38.6339 71.1782C39.3025 71.1902 39.979 71.1582 40.6436 71.2062C41.336 71.2543 42.0245 71.3585 42.701 71.5028C43.3776 71.6471 44.0501 71.8315 44.7147 72.0439C45.443 72.2763 46.1036 72.4647 46.6488 72.7533C47.194 73.0418 47.6238 73.4266 47.8864 74.0518C48.2844 74.9936 48.2168 76.1078 47.783 77.1298C47.3492 78.1517 46.5493 79.0815 45.4907 79.6547C45.236 79.7909 44.9654 79.9071 44.6789 79.9953C44.3924 80.0835 44.0939 80.1436 43.7835 80.1717C41.4276 80.372 40.3809 80.0715 39.402 79.4182C38.423 78.7649 37.5037 77.767 35.4144 76.5646C33.3251 75.3623 31.7532 76.0637 30.7066 77.0656C29.6599 78.0676 29.1386 79.3701 29.1386 79.3701C29.1386 79.3701 27.9606 81.374 28.3546 83.426C28.7486 85.478 30.7105 87.5861 36.9863 87.7864C43.2661 87.9868 46.9274 87.2855 49.0206 86.536C51.1139 85.7826 51.6352 84.981 51.6352 84.981C56.3431 81.1736 55.9531 77.0656 54.3811 73.9115C52.8132 70.7534 50.0633 68.5491 50.0633 68.5491Z" fill="#FFCAD8"/>
<path d="M75.7595 55.5799L75.7675 55.5639C74.0323 54.61 71.6605 54.3134 70.1005 54.5138C69.4876 54.594 68.9385 54.8064 68.5564 55.1671C68.1704 55.5278 67.9515 56.0328 67.9953 56.6981C68.0391 57.3674 68.3535 57.9044 68.648 58.4455C68.9424 58.9865 69.217 59.5316 69.1772 60.2129C69.1693 60.3331 69.1653 60.5576 69.1335 60.766C69.1016 60.9744 69.038 61.1708 68.9186 61.2389C68.8071 61.299 68.6042 61.275 68.3972 61.2269C68.1903 61.1828 67.9794 61.1187 67.86 61.1026C67.478 61.0545 67.084 61.0225 66.69 61.0265C66.3 61.0305 65.906 61.0746 65.5319 61.1828C65.1897 61.283 64.8196 61.3992 64.5251 61.3671C64.2306 61.3351 64.0117 61.1507 63.9719 60.6497C63.9361 60.1808 64.0038 59.6718 64.1072 59.1709C64.2107 58.6659 64.354 58.1689 64.4614 57.7241C64.8594 56.1209 64.3619 55.3194 63.2198 54.9186C62.0777 54.5178 60.2829 54.5178 58.0941 54.5178C55.9053 54.5178 55.2089 55.5198 55.1094 56.8704C55.0099 58.221 55.5073 59.9243 55.7063 61.3271C55.8456 62.301 55.7819 63.2788 55.6944 64.2567C55.6029 65.2346 55.4835 66.2125 55.5034 67.1864C55.5272 68.3687 55.5551 69.551 55.579 70.7333C55.6029 71.9156 55.6307 73.0979 55.6546 74.2802C55.6626 74.5848 55.6705 74.8974 55.7143 75.198C55.7581 75.4986 55.8377 75.7911 55.9889 76.0557C56.2078 76.4444 56.4744 76.6127 56.7768 76.6769C57.0793 76.741 57.4176 76.6969 57.7797 76.6568C58.5318 76.5767 59.3914 76.6568 60.2311 76.6568C61.0708 76.6568 61.8827 76.5526 62.5353 76.1038C63.6138 75.3583 63.8207 74.5447 63.7013 73.675C63.5819 72.8053 63.1402 71.8836 62.9253 70.9297C62.8855 70.7574 62.8656 70.585 62.8576 70.4087C62.8457 70.2323 62.8457 70.06 62.8457 69.8837V68.3287C62.8457 68.1603 62.8457 67.992 62.8537 67.8277C62.8616 67.6594 62.8855 67.495 62.9253 67.3347C63.1044 66.6213 63.5899 66.2847 64.1789 66.1204C64.7679 65.956 65.4643 65.9601 66.0612 65.92C66.2483 65.908 66.9089 65.8398 67.5257 65.8599C68.1425 65.8839 68.7116 65.9961 68.7236 66.3448C68.7634 67.9158 68.7116 69.4829 68.6519 71.0539C68.5883 72.625 68.5166 74.196 68.5087 75.7711C68.5087 75.8833 68.5087 75.9995 68.5166 76.1158C68.5286 76.228 68.5485 76.3402 68.5883 76.4484C68.6798 76.6849 68.8549 76.8572 69.0698 76.9895C69.2847 77.1217 69.5354 77.2139 69.7742 77.282C71.4496 77.755 73.6901 77.751 75.2183 77.0416C76.7464 76.3322 77.5662 74.9134 76.4002 72.5649C75.8033 71.3625 75.6043 69.559 75.8033 67.455C76.0022 65.3509 76.5992 62.9462 77.5941 60.5415C78.589 58.1369 77.4946 56.5337 75.7595 55.5799Z" fill="#FFCAD8"/>
<path d="M126.754 72.0318V72.0118C126.145 71.8635 125.453 71.9036 124.808 72.092C124.163 72.2803 123.566 72.625 123.144 73.0899C122.739 73.5348 122.38 74.0277 121.994 74.4926C121.608 74.9575 121.202 75.4024 120.697 75.7471C120.009 76.224 119.217 76.4725 118.385 76.6007C117.557 76.729 116.69 76.737 115.854 76.741C115.165 76.741 114.441 76.729 113.761 76.5967C113.084 76.4645 112.451 76.212 111.954 75.731C111.568 75.3623 111.309 74.8694 111.194 74.3483C111.078 73.8273 111.106 73.2703 111.297 72.7693C111.333 72.6771 111.373 72.5889 111.421 72.5008C111.468 72.4126 111.52 72.3324 111.584 72.2563C111.663 72.1561 111.759 72.0679 111.858 71.9878C111.958 71.9076 112.065 71.8355 112.177 71.7673C112.917 71.3024 113.637 71.1942 114.381 71.1902C115.126 71.1862 115.89 71.2784 116.717 71.2223C117.139 71.1942 117.561 71.098 117.943 70.9337C118.325 70.7694 118.675 70.5369 118.95 70.2364C119.201 69.9638 119.241 69.6192 119.205 69.2705C119.169 68.9178 119.053 68.5611 118.986 68.2605C118.97 68.1844 118.95 68.1082 118.93 68.0321C118.906 67.9559 118.878 67.8838 118.843 67.8157C118.743 67.6313 118.588 67.483 118.401 67.3588C118.218 67.2345 118.003 67.1343 117.792 67.0502C117.72 67.0221 117.649 66.9941 117.573 66.97C117.497 66.95 117.422 66.9339 117.342 66.9299C117.263 66.9299 117.183 66.938 117.103 66.954C117.024 66.97 116.944 66.9941 116.869 67.0181C116.694 67.0742 116.507 67.1103 116.319 67.1504C116.132 67.1904 115.949 67.2305 115.782 67.2906C115.595 67.3548 115.416 67.467 115.245 67.5912C115.074 67.7155 114.911 67.8477 114.756 67.9599C114.366 68.2365 113.936 68.493 113.482 68.6733C112.356 69.1222 110.84 69.3146 109.968 68.2846C109.483 67.7115 109.28 66.942 109.256 66.1925C109.24 65.6515 109.307 65.1024 109.514 64.6014C109.733 64.0644 110.099 63.5995 110.513 63.1947C111.429 62.2969 112.607 61.6557 113.872 61.4874C114.421 61.4112 115.026 61.4433 115.468 61.7839C115.703 61.9683 115.87 62.2208 116.053 62.4573C117.084 63.7678 119.006 64.4451 120.482 63.6876C121.21 63.3149 121.811 62.6857 122.229 61.9883C122.4 61.6998 122.556 61.4032 122.695 61.0906C122.834 60.778 122.949 60.4654 123.041 60.1528C123.133 59.8402 123.2 59.5236 123.244 59.2029C123.288 58.8863 123.304 58.5737 123.292 58.2731C123.28 57.9725 123.236 57.676 123.164 57.3874C123.093 57.0989 122.981 56.8303 122.834 56.5778C122.683 56.3253 122.496 56.0929 122.269 55.8805C121.76 55.3154 121.191 54.8505 120.562 54.4858C119.933 54.1211 119.252 53.8525 118.512 53.6882C117.772 53.5199 117.016 53.4357 116.248 53.4317C115.48 53.4317 114.696 53.5039 113.896 53.6642C113.124 53.8165 112.368 54.0449 111.62 54.3455C110.871 54.6461 110.135 55.0188 109.407 55.4677C108.679 55.9166 108.006 56.4296 107.389 57.0067C106.772 57.5838 106.203 58.225 105.694 58.9344C105.181 59.6398 104.711 60.4093 104.309 61.2389C103.907 62.0685 103.581 62.9502 103.358 63.892C103.135 64.8299 102.721 65.7356 102.55 67.4029C102.379 69.0701 102.455 71.5028 103.215 75.4986C103.322 76.0597 103.461 76.6087 103.648 77.1498C103.839 77.6908 104.078 78.2159 104.385 78.7289C104.691 79.2418 105.041 79.7268 105.427 80.1877C105.813 80.6486 106.239 81.0814 106.705 81.4862C107.17 81.895 107.668 82.2677 108.193 82.6164C108.718 82.9611 109.276 83.2777 109.857 83.5622C110.442 83.8468 111.039 84.0913 111.651 84.2997C112.264 84.5081 112.889 84.6764 113.53 84.8086C114.103 84.8808 114.7 84.9008 115.333 84.8648C115.961 84.8327 116.622 84.7485 117.31 84.6083C117.764 84.5161 118.218 84.4039 118.671 84.2716C119.125 84.1394 119.575 83.983 120.028 83.8067C120.478 83.6304 120.92 83.438 121.35 83.2256C121.779 83.0132 122.197 82.7847 122.607 82.5362C123.017 82.2878 123.407 82.0233 123.781 81.7387C124.155 81.4541 124.509 81.1536 124.848 80.8329C125.186 80.5123 125.492 80.1757 125.775 79.819C126.054 79.4623 126.308 79.0895 126.531 78.7008C126.75 78.3601 126.957 77.9994 127.148 77.6187C127.343 77.238 127.522 76.8372 127.689 76.4124C127.976 75.6829 128.298 74.7211 128.266 73.8754C128.238 73.0298 127.86 72.3004 126.754 72.0318Z" fill="#FFCAD8"/>
<path d="M13.9564 80.6366L13.5386 80.5965C11.5886 80.4161 9.57094 80.2318 7.52941 79.823C5.74655 79.4663 4.25022 78.821 2.95288 77.8471C1.67145 76.8853 0.752163 75.687 0.226857 74.2842C-0.728245 71.7553 0.00399922 68.6934 2.00175 66.8418C3.10012 65.8238 4.5089 65.2106 6.0092 65.0824C7.11553 62.822 9.42369 61.299 12.0622 61.299C12.3567 61.299 12.6551 61.3191 12.9496 61.3591C14.9314 61.6236 16.587 62.6416 17.7331 64.3048C18.6285 65.6034 19.1259 67.0983 19.2573 68.8857C19.3647 70.3205 19.1458 71.6191 18.9429 72.5889C18.6205 74.144 18.1987 75.6509 17.8286 76.9213L17.4426 78.2319C17.0247 79.6787 15.7473 80.6486 14.2669 80.6486L13.9564 80.6326V80.6366Z" fill="#4343FF"/>
<path d="M8.48051 68.7655C8.49245 68.4088 8.48051 68.0521 8.51633 67.7034C8.7352 65.7036 10.5499 64.2728 12.5317 64.5373C13.6261 64.6816 14.4857 65.2146 15.1145 66.1324C15.7353 67.0341 15.998 68.0481 16.0815 69.1262C16.1532 70.0761 16.0179 71.0059 15.8268 71.9357C15.5403 73.3143 15.1662 74.673 14.7722 76.0236C14.6449 76.4605 14.5136 76.9013 14.3862 77.3382C14.3663 77.4143 14.3385 77.4544 14.2469 77.4464C12.2054 77.258 10.1639 77.0857 8.15021 76.6809C6.95633 76.4444 5.84204 76.0196 4.85908 75.2782C4.1149 74.7211 3.53786 74.0277 3.20357 73.146C2.69816 71.8034 3.11204 70.1682 4.1547 69.2024C5.31674 68.1243 7.04388 68 8.385 68.7174C8.42082 68.7375 8.45663 68.7535 8.48051 68.7655Z" fill="#FFCAD8"/>
<path d="M138.661 17.1693L138.534 16.7645C137.941 14.8849 137.324 12.9411 136.902 10.8891C136.532 9.09766 136.544 7.45447 136.93 5.87139C137.312 4.30836 138.052 2.98979 139.127 1.95579C141.069 0.0881606 144.153 -0.428841 146.624 0.705361C147.985 1.33057 149.091 2.39264 149.792 3.73925C152.291 3.88754 154.583 5.43454 155.61 7.8833C155.725 8.15583 155.821 8.44038 155.901 8.72894C156.43 10.6727 156.143 12.6005 155.069 14.3118C154.229 15.6464 153.055 16.6924 151.471 17.51C150.198 18.1673 148.928 18.4679 147.961 18.6602C146.417 18.9648 144.869 19.1612 143.564 19.3135L142.215 19.4658C140.73 19.6381 139.341 18.8366 138.768 17.4619L138.661 17.1653V17.1693Z" fill="#4343FF"/>
<path d="M147.388 7.4705C147.718 7.34225 148.041 7.18995 148.375 7.08976C150.289 6.51264 152.303 7.63882 152.832 9.5826C153.127 10.6527 152.972 11.6586 152.379 12.6005C151.794 13.5303 150.97 14.1675 150.019 14.6605C149.179 15.0973 148.276 15.3338 147.352 15.5181C145.979 15.7907 144.591 15.971 143.202 16.1313C142.752 16.1834 142.298 16.2315 141.849 16.2876C141.773 16.2956 141.721 16.2876 141.693 16.1994C141.073 14.2316 140.436 12.2718 140.018 10.2479C139.771 9.04956 139.727 7.84723 140.018 6.6489C140.241 5.74314 140.647 4.93357 141.323 4.28431C142.354 3.29439 144.013 3.0419 145.303 3.63505C146.743 4.29633 147.527 5.84734 147.392 7.3703C147.392 7.41038 147.388 7.45046 147.384 7.47851L147.388 7.4705Z" fill="#FFCAD8"/>
<path d="M133.34 101.433L133.109 101.08C132.035 99.4291 130.925 97.7258 129.97 95.8662C129.138 94.239 128.708 92.6559 128.656 91.0288C128.608 89.4177 128.967 87.9508 129.727 86.6603C131.1 84.3318 133.929 83.0052 136.615 83.426C138.092 83.6585 139.445 84.3839 140.476 85.49C142.923 84.957 145.542 85.8267 147.185 87.9067C147.368 88.1392 147.539 88.3877 147.691 88.6401C148.721 90.3675 148.96 92.3033 148.379 94.243C147.929 95.754 147.074 97.0805 145.768 98.2949C144.718 99.2728 143.576 99.906 142.696 100.355C141.287 101.068 139.855 101.673 138.637 102.174L137.38 102.687C135.995 103.257 134.447 102.856 133.523 101.689L133.34 101.433Z" fill="#4343FF"/>
<path d="M139.158 89.7263C139.445 89.5138 139.712 89.2814 140.006 89.093C141.697 88.0189 143.938 88.56 144.965 90.2873C145.534 91.2412 145.653 92.2471 145.335 93.3172C145.02 94.3673 144.396 95.2089 143.612 95.9383C142.915 96.5836 142.111 97.0605 141.272 97.4853C140.022 98.1185 138.733 98.6676 137.439 99.2006C137.017 99.373 136.596 99.5413 136.178 99.7136C136.106 99.7417 136.058 99.7497 136.007 99.6696C134.884 97.9422 133.746 96.2269 132.807 94.3873C132.25 93.2972 131.884 92.155 131.848 90.9206C131.82 89.9868 131.995 89.101 132.473 88.2915C133.201 87.0571 134.729 86.3677 136.13 86.5882C137.69 86.8326 138.864 88.1151 139.138 89.618C139.146 89.6581 139.154 89.6982 139.162 89.7222L139.158 89.7263Z" fill="#FFCAD8"/>
</g>
<defs>
<clipPath id="clip0_17_375">
<rect width="156" height="103" fill="white"/>
</clipPath>
</defs>
</svg>
